<svg width="33" height="32" viewBox="0 0 33 32" fill="none" xmlns="http://www.w3.org/2000/svg">
<path d="M12.2729 30.5909C13.0511 30.5909 13.682 29.96 13.682 29.1818C13.682 28.4036 13.0511 27.7727 12.2729 27.7727C11.4946 27.7727 10.8638 28.4036 10.8638 29.1818C10.8638 29.96 11.4946 30.5909 12.2729 30.5909Z" stroke="white" stroke-width="2" stroke-linecap="round" stroke-linejoin="round"/>
<path d="M27.7729 30.5909C28.5511 30.5909 29.182 29.96 29.182 29.1818C29.182 28.4036 28.5511 27.7727 27.7729 27.7727C26.9946 27.7727 26.3638 28.4036 26.3638 29.1818C26.3638 29.96 26.9946 30.5909 27.7729 30.5909Z" stroke="white" stroke-width="2" stroke-linecap="round" stroke-linejoin="round"/>
<path d="M1 1H6.63636L10.4127 19.8677C10.5416 20.5165 10.8945 21.0992 11.4097 21.514C11.9249 21.9287 12.5696 22.149 13.2309 22.1364H26.9273C27.5886 22.149 28.2332 21.9287 28.7485 21.514C29.2637 21.0992 29.6166 20.5165 29.7455 19.8677L32 8.04545H8.04545" stroke="white" stroke-width="2" stroke-linecap="round" stroke-linejoin="round"/>
</svg>
