<svg width="67" height="67" viewBox="0 0 67 67" fill="none" xmlns="http://www.w3.org/2000/svg">
<circle cx="33.5" cy="33.5" r="33.5" fill="#F78700"/>
<path d="M40.6667 18H14V41.1111H40.6667V18Z" stroke="white" stroke-width="3" stroke-linecap="round" stroke-linejoin="round"/>
<path d="M40.6665 26.8889H47.7776L53.1109 32.2222V41.1111H40.6665V26.8889Z" stroke="white" stroke-width="3" stroke-linecap="round" stroke-linejoin="round"/>
<path d="M22.0004 50C24.455 50 26.4448 48.0101 26.4448 45.5555C26.4448 43.1009 24.455 41.1111 22.0004 41.1111C19.5458 41.1111 17.5559 43.1009 17.5559 45.5555C17.5559 48.0101 19.5458 50 22.0004 50Z" stroke="white" stroke-width="3" stroke-linecap="round" stroke-linejoin="round"/>
<path d="M45.1109 50C47.5655 50 49.5554 48.0101 49.5554 45.5555C49.5554 43.1009 47.5655 41.1111 45.1109 41.1111C42.6563 41.1111 40.6665 43.1009 40.6665 45.5555C40.6665 48.0101 42.6563 50 45.1109 50Z" stroke="white" stroke-width="3" stroke-linecap="round" stroke-linejoin="round"/>
</svg>
