<svg width="67" height="67" viewBox="0 0 67 67" fill="none" xmlns="http://www.w3.org/2000/svg">
<circle cx="33.5" cy="33.5" r="33.5" fill="#F78700"/>
<path d="M37.9592 31.0181H28.7672C28.042 31.0181 27.4541 31.6531 27.4541 32.4363V37.3999C27.4541 38.1832 28.042 38.8181 28.7672 38.8181H37.9592C38.6844 38.8181 39.2723 38.1832 39.2723 37.3999V32.4363C39.2723 31.6531 38.6844 31.0181 37.9592 31.0181Z" stroke="white" stroke-width="2" stroke-linecap="round" stroke-linejoin="round"/>
<path d="M30.0811 31.0182V28.1818C30.0811 27.2415 30.4269 26.3397 31.0426 25.6748C31.6582 25.0099 32.4932 24.6364 33.3639 24.6364C34.2345 24.6364 35.0695 25.0099 35.6852 25.6748C36.3008 26.3397 36.6467 27.2415 36.6467 28.1818V31.0182" stroke="white" stroke-width="2" stroke-linecap="round" stroke-linejoin="round"/>
<path d="M33.3636 53C33.3636 53 48.7273 45.2 48.7273 33.5V19.85L33.3636 14L18 19.85V33.5C18 45.2 33.3636 53 33.3636 53Z" stroke="white" stroke-width="3" stroke-linecap="round" stroke-linejoin="round"/>
</svg>
