<svg width="53" height="41" viewBox="0 0 53 41" fill="none" xmlns="http://www.w3.org/2000/svg">
<rect x="1" y="1" width="51" height="39" rx="9" fill="#FFEEDC" stroke="#F78700" stroke-width="2"/>
<path d="M36.3036 12.6797C35.766 12.1472 35.1278 11.7248 34.4253 11.4366C33.7228 11.1483 32.9699 11 32.2095 11C31.4491 11 30.6961 11.1483 29.9936 11.4366C29.2912 11.7248 28.6529 12.1472 28.1153 12.6797L26.9997 13.7844L25.8841 12.6797C24.7983 11.6046 23.3256 11.0006 21.79 11.0006C20.2544 11.0006 18.7817 11.6046 17.6958 12.6797C16.61 13.7549 16 15.2131 16 16.7336C16 18.2541 16.61 19.7124 17.6958 20.7875L18.8115 21.8922L26.9997 30L35.188 21.8922L36.3036 20.7875C36.8414 20.2553 37.268 19.6233 37.5591 18.9277C37.8502 18.2321 38 17.4866 38 16.7336C38 15.9807 37.8502 15.2352 37.5591 14.5396C37.268 13.844 36.8414 13.212 36.3036 12.6797V12.6797Z" stroke="#F78700" stroke-width="2" stroke-linecap="round" stroke-linejoin="round"/>
</svg>
