<svg width="55" height="49" viewBox="0 0 55 49" fill="none" xmlns="http://www.w3.org/2000/svg">
<rect width="54.8073" height="48.1927" rx="10" fill="#F78700"/>
<path d="M34.7271 10.3945H21.0252C17.2416 10.3945 14.1743 13.4618 14.1743 17.2454V30.9473C14.1743 34.7309 17.2416 37.7982 21.0252 37.7982H34.7271C38.5107 37.7982 41.578 34.7309 41.578 30.9473V17.2454C41.578 13.4618 38.5107 10.3945 34.7271 10.3945Z" stroke="white" stroke-width="3" stroke-linecap="round" stroke-linejoin="round"/>
<path d="M33.3573 23.2327C33.5264 24.373 33.3316 25.5377 32.8006 26.5609C32.2697 27.5842 31.4296 28.4139 30.3999 28.9322C29.3702 29.4505 28.2033 29.6309 27.0651 29.4478C25.9269 29.2646 24.8755 28.7273 24.0604 27.9121C23.2452 27.097 22.7078 26.0455 22.5247 24.9074C22.3415 23.7692 22.5219 22.6023 23.0402 21.5726C23.5585 20.5428 24.3883 19.7028 25.4116 19.1718C26.4348 18.6409 27.5994 18.4461 28.7398 18.6152C29.9029 18.7877 30.9798 19.3297 31.8113 20.1612C32.6428 20.9927 33.1848 22.0695 33.3573 23.2327Z" stroke="white" stroke-width="3" stroke-linecap="round" stroke-linejoin="round"/>
<path d="M35.4121 16.5603H35.4261" stroke="white" stroke-width="3" stroke-linecap="round" stroke-linejoin="round"/>
</svg>
