<svg width="232" height="53" viewBox="0 0 232 53" fill="none" xmlns="http://www.w3.org/2000/svg">
<path d="M69.7822 16.3083C69.9668 16.4836 70.6405 15.6807 71.508 15.773C72.071 15.8284 72.4494 16.2621 72.4956 16.3083C72.7355 16.5944 72.8094 16.9082 72.8371 17.0189C72.8647 17.1574 72.8647 17.2312 72.874 17.7388C72.8832 18.2464 72.8924 18.2002 72.8924 18.4125C72.9017 19.0586 72.874 19.6216 72.8555 20.0184C72.8463 20.1569 72.837 20.7106 72.8186 21.8181C72.8001 23.101 72.8001 24.0239 72.7817 24.8453C72.6986 28.6016 72.7355 30.4843 72.7171 31.3057C72.6894 32.2932 72.6894 33.2715 72.6617 34.2591C72.6525 34.6651 72.6248 35.4219 72.6986 36.4187C72.7909 37.8031 72.9478 38.1445 73.0309 38.2922C73.4739 39.1228 74.2583 39.5012 74.5906 39.6581C75.4397 40.0735 76.2057 40.0642 76.8794 40.055C77.7654 40.0458 78.5499 40.0365 79.3159 39.5012C79.4636 39.3997 80.2112 38.8552 80.4419 38.043C80.4696 37.9323 80.525 37.6739 80.5527 37.3693C80.5711 37.2309 80.5803 37.0463 80.5896 36.6771C80.5988 36.1787 80.5803 35.8003 80.5803 35.7726C80.5342 34.499 80.525 33.0777 80.525 32.9485C80.525 32.5701 80.525 32.4778 80.525 31.9056C80.525 31.2965 80.5157 30.9919 80.5157 30.6781C80.5157 29.8567 80.5342 29.303 80.5434 28.7862C80.5711 27.5864 80.5434 27.3002 80.5527 25.3898C80.5527 24.8545 80.5619 24.8268 80.5711 23.6362C80.5803 22.0857 80.5803 21.8642 80.5803 21.7258C80.5711 20.5629 80.525 20.5722 80.525 19.557C80.5157 18.6064 80.5527 18.4587 80.5434 17.4435C80.525 16.1237 80.4511 15.8283 80.3404 15.533C80.0727 14.8685 79.639 14.444 79.4267 14.2502C78.9745 13.8441 78.5222 13.6687 78.2823 13.5764C77.6916 13.3457 77.2117 13.318 76.5287 13.2719C76.2519 13.2534 75.5873 13.2257 74.729 13.3365C74.5352 13.3641 74.0184 13.4288 73.3723 13.6041C72.6248 13.8072 72.0803 14.0379 71.9326 14.1025C71.2312 14.4163 70.8251 14.6932 70.5944 14.8777C70.5021 14.9516 70.3082 15.1085 70.1052 15.3669C69.8837 15.6622 69.8191 15.8653 69.8006 15.9575C69.7545 16.1514 69.7268 16.2529 69.7822 16.3083Z" fill="#F78700"/>
<path d="M80.3587 20.1568C80.5802 20.2491 81.0047 19.114 82.426 17.8311C83.2844 17.0651 83.6812 16.9728 83.8381 16.9451C85.0379 16.7236 86.0254 17.7296 86.1177 17.8219C86.5423 18.2649 86.6992 18.7171 86.9391 19.3908C87.1514 19.9999 87.2252 20.4891 87.3544 21.4305C87.4929 22.4088 87.5482 23.1748 87.6128 24.0977C87.6405 24.5407 87.6867 25.1867 87.7236 26.0266C87.8343 28.6385 87.7328 30.632 87.7144 31.1119C87.6959 31.4626 87.6405 32.5332 87.4929 33.936C87.2806 35.9665 87.1606 37.0647 86.6807 38.4676C86.2469 39.7597 85.7947 40.4703 85.4532 40.9225C85.2594 41.1717 84.9456 41.587 84.438 42.03C84.2719 42.1685 83.9304 42.473 83.432 42.8145C82.223 43.6267 81.4201 43.7559 81.457 43.922C81.4939 44.1343 82.8875 44.1435 84.2534 43.8759C85.5086 43.6267 86.4223 43.2021 87.0406 42.916C87.7605 42.5746 88.665 42.15 89.6525 41.3194C90.4831 40.6272 90.9815 39.9904 91.4245 39.4366C92.3013 38.3291 92.8366 37.3232 93.1042 36.7786C93.7872 35.4035 94.0733 34.3052 94.4148 32.9762C94.9039 31.0934 95.07 29.6168 95.1254 29.0999C95.2638 27.7248 95.2546 26.6911 95.2454 25.5836C95.2362 24.6699 95.2177 23.5624 95.0608 22.1319C94.8855 20.5445 94.747 19.3631 94.184 17.8865C93.8333 16.9636 93.5564 16.2621 92.9012 15.4961C91.5906 13.964 89.9017 13.5395 89.4864 13.438C89.1818 13.3734 87.8528 13.0965 86.2931 13.5487C85.4994 13.7795 84.9641 14.0933 84.4195 14.4163C83.0167 15.2469 82.1769 16.1975 81.7246 16.7143C81.337 17.1573 81.0786 17.4619 80.8202 17.9511C80.3125 18.9201 80.1464 20.0738 80.3587 20.1568Z" fill="#F78700"/>
<path d="M15.5422 19.4647C15.5791 19.5939 15.6991 19.9907 15.856 20.5445C16.1237 21.4951 16.2529 22.0765 16.8158 24.0423C17.4527 26.2573 17.4619 26.1466 18.0064 28.0386C18.7632 30.6781 19.4462 33.3638 19.4462 33.3638C19.6492 34.1668 19.9076 35.2096 20.3229 36.6955C20.8213 38.4768 21.0336 39.0767 21.615 39.6212C22.4549 40.3965 23.4978 40.5072 23.8946 40.5534C24.1438 40.5811 25.7036 40.7287 27.0418 39.7689C28.0847 39.0213 28.5277 37.7292 29.386 35.1635C29.7921 33.9453 30.069 32.9208 30.2351 32.2471C31.0011 29.829 31.7764 27.4202 32.5424 25.0022C33.1238 23.2579 33.5391 21.7904 33.8253 20.7014C34.0098 19.9907 34.1483 19.4277 34.1114 18.6802C34.0468 17.425 33.5207 15.8653 32.9393 15.8376C32.2286 15.8099 31.5549 18.071 31.0934 20.0276C30.5212 22.4457 29.9213 24.0793 29.5983 25.2145C29.1922 26.6819 28.5277 28.7954 27.5033 31.3426C27.0787 30.3366 26.7372 29.4691 26.4788 28.7585C26.2112 28.0386 25.8512 27.0695 25.5374 26.0543C25.5005 25.9158 25.3898 25.5651 25.2882 25.2237C25.196 24.9283 25.076 24.513 24.9006 23.8947C23.9131 20.4706 23.95 20.2584 23.2578 17.9418C22.7964 16.3729 22.9902 17.1666 21.7442 13.2257C20.849 10.4016 20.3783 9.3956 20.2306 9.05412C19.3446 6.94987 18.9109 5.89772 18.1079 5.05787C16.742 3.61811 15.1361 3.1013 14.3609 2.86134C12.2659 2.2153 10.5215 2.4737 9.37712 2.63982C8.64801 2.75057 7.46667 2.92594 6.05461 3.58122C4.04264 4.51337 2.85208 5.81468 2.48291 6.22999C1.94762 6.83912 0.75705 8.24194 0.258674 10.4293C0.0740897 11.2599 -0.230475 12.6627 0.28636 14.324C0.461715 14.8962 0.904719 16.299 2.26141 17.2958C4.00573 18.5879 6.02692 18.2926 6.79295 18.1726C7.46668 18.071 8.87874 17.8588 10.0324 16.7051C10.3923 16.3452 10.9645 15.6438 11.2414 14.6193C11.3614 14.1671 11.7398 12.755 10.9369 11.5922C10.8169 11.4168 10.42 10.863 9.68168 10.5954C9.0541 10.3739 8.03889 10.3093 7.54974 10.8538C7.15288 11.2968 7.48513 11.7121 7.05136 12.349C6.77449 12.7643 6.25765 13.1334 5.63006 13.1796C4.67023 13.2442 4.0611 12.4966 3.9965 12.4228C3.59041 11.9059 3.58118 11.3522 3.57195 10.7154C3.57195 10.4754 3.56272 9.37713 4.20877 8.11273C4.47641 7.58666 4.8825 6.81141 5.7685 6.18383C5.99 6.02693 6.78371 5.49166 7.96505 5.37168C8.5188 5.31631 9.31251 5.24246 10.0878 5.64855C11.186 6.21153 11.6844 7.31902 12.2659 8.9249C13.9548 13.5856 15.0992 18.0064 15.5422 19.4647Z" fill="#F78700"/>
<path d="M29.7462 8.10351C29.4878 8.74955 29.5985 9.31253 30.2815 11.4537C30.826 13.1519 31.2782 14.4809 31.5274 15.1915C32.395 17.7019 32.6534 18.514 32.7641 18.8555C32.9395 19.4185 33.244 20.3691 33.5855 21.5504C34.0378 23.1379 34.2408 24.0885 34.5731 25.4267C34.9422 26.9403 34.8407 26.4235 36.0128 30.9181C36.5112 32.8285 37.1665 34.6928 37.6833 36.6033C37.9602 37.6 38.1909 38.4399 38.9385 39.2243C39.8245 40.1565 40.9781 40.4241 41.6242 40.5257C42.3071 40.5718 42.8609 40.4888 43.23 40.4057C43.6638 40.3042 44.0422 40.2211 44.4206 39.9258C44.8359 39.612 45.039 39.2243 45.1313 39.0398C46.2388 36.834 46.5156 35.7357 46.5156 35.7357C46.8756 34.2775 47.3647 32.8562 47.7708 31.4164C48.0384 30.4658 49.0352 27.3648 51.0103 21.2182L51.0195 21.1813C51.8224 18.6801 52.9484 15.0346 54.2866 10.3462C54.8865 8.60187 55.2557 7.10674 55.4956 5.98077C55.7817 4.63331 55.8556 3.86731 55.6064 2.99976C55.4956 2.62136 55.2465 1.78149 54.4804 1.10776C53.6313 0.360195 52.1362 -0.211996 50.7426 0.40636C50.6319 0.452506 49.2013 1.12623 48.8968 2.67673C48.8598 2.86132 48.666 3.84885 49.2106 4.70717C49.6905 5.47319 50.2719 5.3532 50.7057 6.0177C51.0841 6.59914 50.9826 7.20825 50.7795 8.57417C50.6134 9.67245 50.4565 10.7061 50.2073 12.3397C49.7735 14.084 49.3305 15.8191 48.8968 17.5634C48.3615 19.6031 47.8354 21.6335 47.3001 23.6732C46.691 25.9897 46.1465 27.734 45.7404 28.9246C45.565 29.4414 45.2328 30.4012 44.8544 30.3828C44.679 30.3735 44.5314 30.1705 44.153 29.2753C43.8115 28.4631 43.5807 27.7709 43.4331 27.3095C40.1936 16.8897 38.9108 12.4504 38.6062 11.0938C38.4678 10.4754 38.357 10.1431 38.1263 9.47865C37.4156 7.42054 36.8527 6.92217 36.6312 6.74681C36.142 6.35919 35.6529 6.2023 35.3575 6.11923C34.5546 5.87005 33.8809 5.93463 33.364 5.98077C32.7641 6.03615 32.1273 6.10076 31.4074 6.47916C31.1121 6.6176 30.143 7.12521 29.7462 8.10351Z" fill="#F78700"/>
<path d="M61.614 9.12794C61.5678 9.53402 61.5494 9.87552 61.5494 10.1247C61.5494 10.6508 61.5494 10.9646 61.6878 11.3522C61.7709 11.5829 61.854 11.8321 62.0939 12.0536C62.1954 12.1551 62.5 12.432 62.9153 12.4228C63.3952 12.4043 63.6998 12.0167 63.8013 11.8967C64.0044 11.6383 64.0597 11.3799 64.1243 11.1122C64.152 10.9738 64.1705 10.8538 64.2166 10.217C64.2351 9.92167 64.2535 9.67247 64.2628 9.48789C64.4197 9.64479 64.6504 9.8755 64.9365 10.1339C65.4902 10.6323 65.6841 10.7338 65.7579 10.7615C65.9609 10.8538 66.3486 11.0384 66.7916 10.9276C66.8931 10.9 67.1515 10.8353 67.3453 10.6046C67.5853 10.3185 67.5853 9.97703 67.5853 9.82937C67.5853 9.54326 67.4838 9.34023 67.4007 9.14642C67.3084 8.94337 67.2161 8.81416 67.0408 8.56497C66.8746 8.32501 66.81 8.26041 66.607 7.99277C66.4962 7.85433 66.3578 7.66051 66.2009 7.41132C66.4224 7.45747 66.6624 7.48515 66.93 7.49438C67.1423 7.50361 67.4376 7.51285 67.816 7.44825C68.139 7.39287 68.3144 7.36517 68.5174 7.23597C68.6282 7.17136 69.0158 6.9314 69.0896 6.4884C69.1358 6.17461 68.9973 5.91619 68.9235 5.79621C68.7574 5.49165 68.5082 5.34398 68.3882 5.27014C68.2129 5.16862 67.9914 5.07632 67.2438 5.00249C66.9392 4.9748 66.5239 4.94712 66.0348 4.95635C66.1917 4.82714 66.3947 4.65178 66.6162 4.43028C66.8469 4.20878 66.9761 4.08881 67.1146 3.88576C67.2253 3.7381 67.3915 3.50736 67.5022 3.18433C67.5945 2.89823 67.6868 2.63058 67.5945 2.31679C67.5668 2.2245 67.4653 1.92917 67.17 1.74458C66.93 1.59692 66.6993 1.59692 66.5147 1.60615C66.0625 1.61538 65.7302 1.79998 65.5364 1.91073C65.2041 2.10454 65.0011 2.3168 64.7704 2.55676C64.5581 2.77826 64.4012 2.9813 64.2997 3.1382C64.3089 2.76903 64.2997 2.46448 64.2997 2.22452C64.2905 1.75383 64.2812 1.60615 64.2443 1.43079C64.2166 1.28313 64.1612 1.05239 64.0228 0.793977C63.949 0.655539 63.8567 0.480195 63.6629 0.314069C63.5429 0.212548 63.2937 -0.00894944 62.9338 0.000279752C62.5738 0.00950895 62.3339 0.231016 62.2508 0.295621C62.0016 0.526351 61.9186 0.803212 61.8263 1.117C61.7986 1.2093 61.7524 1.39388 61.6971 2.01224C61.6786 2.2522 61.6509 2.58446 61.6417 2.97208C61.5494 2.87056 61.4109 2.73211 61.2356 2.55676C61.051 2.37217 60.9495 2.2799 60.8664 2.19683C60.7372 2.07685 60.4511 1.83687 60.045 1.65229C59.722 1.50462 59.4728 1.3939 59.1406 1.44927C59.0575 1.4585 58.7068 1.52308 58.4853 1.82764C58.2915 2.09529 58.3099 2.39986 58.3284 2.61213C58.3561 2.94438 58.4761 3.17511 58.5868 3.38738C58.7068 3.62734 58.836 3.79347 59.0206 4.0242C59.159 4.19955 59.2882 4.34723 59.3898 4.46721C59.5097 4.60564 59.6205 4.71638 59.6943 4.79944C59.519 4.79022 59.2513 4.79023 58.9375 4.79023C58.5499 4.79946 58.3469 4.79946 58.1254 4.84561C57.8669 4.89175 57.5993 4.94712 57.3132 5.15016C57.1747 5.24245 56.9163 5.42703 56.8056 5.77774C56.7779 5.85157 56.7133 6.08232 56.7871 6.34997C56.8702 6.67299 57.1009 6.85757 57.2486 6.97755C57.5162 7.18982 57.7839 7.26365 57.9592 7.31903C58.2453 7.39286 58.5037 7.40208 59.0021 7.40208C59.2513 7.40208 59.4544 7.39287 59.602 7.38364C59.5559 7.43901 59.4913 7.52207 59.4082 7.61437C59.2975 7.7528 59.0944 8.002 58.9283 8.2235C58.6514 8.59266 58.513 8.76802 58.4484 8.91569C58.3653 9.09104 58.2361 9.38636 58.2638 9.76476C58.273 9.92165 58.3007 10.217 58.5222 10.4662C58.7622 10.7338 59.0944 10.78 59.2236 10.7984C59.6113 10.8538 59.925 10.7154 60.1189 10.6231C60.4603 10.4662 60.6726 10.2539 60.9772 9.93087C61.1341 9.76475 61.374 9.48788 61.614 9.12794Z" fill="#FFEEDC"/>
<path d="M56.7597 16.4467C56.9351 16.622 57.5996 15.8191 58.4487 15.9114C59.0024 15.9667 59.3716 16.4005 59.4085 16.4467C59.6485 16.7328 59.7131 17.0466 59.7408 17.1573C59.7684 17.2958 59.7684 17.3696 59.7777 17.8772C59.7869 18.3848 59.7961 18.3387 59.7961 18.5509C59.8054 19.197 59.7777 19.7599 59.7592 20.1568C59.75 20.2952 59.7408 20.849 59.7223 21.9565C59.7038 23.2393 59.7038 24.1623 59.6854 24.9837C59.6023 28.74 59.6392 30.6227 59.6208 31.4441C59.5931 32.4316 59.5931 33.4099 59.5654 34.3974C59.5562 34.8035 59.5377 35.5603 59.6023 36.5571C59.6946 37.9415 59.8515 38.2829 59.9253 38.4306C60.3591 39.2612 61.1251 39.6396 61.4482 39.7965C62.2788 40.2118 63.0263 40.2026 63.6909 40.1934C64.5584 40.1841 65.3337 40.1749 66.0812 39.6396C66.2289 39.5381 66.958 38.9936 67.1795 38.1814C67.2072 38.0707 67.2626 37.8122 67.2902 37.5077C67.3087 37.3692 67.3179 37.1847 67.3272 36.8155C67.3364 36.3171 67.3179 35.9387 67.3179 35.911C67.2718 34.6374 67.2626 33.2161 67.2626 33.0869C67.2626 32.7085 67.2626 32.6162 67.2626 32.044C67.2626 31.4349 67.2533 31.1303 67.2533 30.8165C67.2533 29.9951 67.2625 29.4414 67.281 28.9245C67.3087 27.7247 67.281 27.4386 67.2902 25.5282C67.2902 24.9929 67.2995 24.9652 67.3087 23.7746C67.3179 22.2241 67.3179 22.0026 67.3179 21.8642C67.3087 20.7013 67.2718 20.7106 67.2626 19.6953C67.2533 18.7447 67.2902 18.5971 67.281 17.5819C67.2625 16.2621 67.1979 15.9667 67.078 15.6714C66.8195 15.0069 66.395 14.5824 66.1827 14.3886C65.7397 13.9825 65.2967 13.8071 65.066 13.7148C64.4846 13.4841 64.0231 13.4564 63.3494 13.4103C63.0817 13.3918 62.4265 13.3641 61.5866 13.4749C61.3928 13.5026 60.8944 13.5671 60.2576 13.7425C59.5193 13.9455 58.9932 14.1763 58.8548 14.2409C58.1626 14.5547 57.7657 14.8316 57.5442 15.0161C57.4519 15.09 57.2581 15.2469 57.0735 15.5053C56.852 15.8006 56.7966 16.0037 56.7782 16.096C56.732 16.2898 56.7043 16.4005 56.7597 16.4467Z" fill="#F78700"/>
<path d="M193.915 28.8415C194.164 28.3708 194.589 28.1493 194.801 28.0386C196.462 27.1987 197.293 26.7834 197.644 26.6265C197.856 26.5342 198.677 26.0266 200.32 25.0299C202.664 23.6178 203.144 23.2855 203.384 23.1194C205.009 21.9842 205.83 21.3935 206.162 20.5445C206.725 19.1047 206.098 17.7111 205.996 17.4988C205.424 16.2713 204.39 15.7361 203.532 15.2838C202.332 14.6562 201.28 14.527 200.357 14.4163C198.077 14.1394 196.333 14.5916 195.982 14.6839C194.386 15.1085 193.297 15.7914 192.521 16.2806C190.814 17.3604 189.78 18.5233 189.531 18.8094C189.116 19.2801 187.907 20.729 187.067 22.9717C186.366 24.8453 186.246 26.3958 186.181 27.3648C186.089 28.7769 186.19 29.9398 186.301 30.7427C186.43 31.721 186.569 32.6901 187.067 33.8899C187.63 35.2374 188.35 36.1233 188.765 36.6217C190.159 38.3014 191.635 39.1505 192.06 39.3812C193.334 40.0827 194.441 40.3596 194.884 40.4611C196.176 40.7564 197.191 40.7195 197.957 40.6918C198.733 40.6641 200.136 40.5441 201.797 40.0089C202.471 39.7873 203.477 39.4643 204.639 38.726C205.405 38.2461 206.328 37.6738 207.067 36.5848C207.537 35.8834 207.851 35.0989 207.74 35.0159C207.657 34.9605 207.399 35.2927 206.808 35.7542C206.384 36.0772 206.042 36.271 205.682 36.4741C205.138 36.7786 204.243 37.277 203.061 37.5077C202.6 37.6 201.28 37.8307 199.72 37.3416C198.382 36.9171 197.542 36.1695 197.025 35.708C196.25 35.0159 195.779 34.3421 195.447 33.8622C194.875 33.0408 194.57 32.3763 194.303 31.7948C193.878 30.8812 193.758 30.3736 193.74 29.8475C193.721 29.2753 193.841 28.9892 193.915 28.8415Z" fill="#F78700"/>
<path d="M160.071 16.2529C160.56 16.4559 160.791 16.9635 160.901 17.2127C161.021 17.4804 161.049 18.1356 161.086 19.437C161.095 19.76 161.104 20.0645 161.114 20.3876C161.123 21.1259 161.132 21.0521 161.132 21.3751C161.141 22.3165 161.114 23.1378 161.095 23.7193C161.086 23.9223 161.077 24.7345 161.058 26.3404C161.04 28.2139 161.04 29.5706 161.021 30.7704C160.994 32.5147 160.984 33.9914 160.975 35.2189C160.966 36.068 160.957 37.8861 160.957 40.2211C160.957 43.9958 161.003 43.6267 160.966 44.5496C160.929 45.4079 160.938 46.1739 160.948 47.6967C160.948 47.6967 160.948 48.2597 161.031 49.0904C161.095 49.801 161.178 50.124 161.261 50.4194C161.594 51.5822 162.387 52.1452 162.766 52.4221C163.596 53.022 164.325 53.0127 164.981 52.9943C165.839 52.9758 166.605 52.9666 167.343 52.1913C167.491 52.0437 168.211 51.25 168.432 50.0594C168.46 49.9025 168.515 49.5241 168.543 49.0719C168.562 48.8596 168.571 48.6012 168.58 48.0659C168.589 47.3368 168.571 46.783 168.571 46.7461C168.525 44.8818 168.515 42.8145 168.515 42.6114C168.515 42.0577 168.515 41.9193 168.515 41.0886C168.515 40.1934 168.506 39.7596 168.506 39.289C168.506 38.0799 168.515 37.277 168.534 36.5202C168.552 35.4312 168.543 35.5142 168.543 35.4496C168.562 33.5299 168.534 32.727 168.543 31.1303C168.543 30.9734 168.543 30.5766 168.552 30.1428C168.552 29.7644 168.562 29.3491 168.562 28.9984C168.571 26.7649 168.571 26.4973 168.571 26.2019C168.562 25.5374 168.562 25.6667 168.552 25.0668C168.543 23.8393 168.571 23.7654 168.562 22.7964C168.552 22.0027 168.534 21.9104 168.525 20.9228C168.525 20.4798 168.525 20.4337 168.525 19.9445C168.515 18.9755 168.515 18.4863 168.479 18.1726C168.442 17.7942 168.386 17.2958 168.192 16.6682C168.091 16.3544 167.999 16.0867 167.86 15.8191C167.777 15.653 167.694 15.533 167.666 15.4776C167.316 14.9423 166.919 14.6193 166.808 14.5363C166.402 14.2132 166.024 14.0656 165.913 14.0194C165.433 13.8348 165.055 13.8071 164.436 13.7795C164.178 13.7702 163.532 13.7425 162.683 13.8533C162.36 13.8994 161.861 13.964 161.234 14.1671C160.689 14.3424 160.292 14.527 160.006 14.6654C159.628 14.85 159.369 14.97 159.037 15.21C158.871 15.3299 158.493 15.616 158.17 16.1052C158.031 16.3175 157.966 16.419 158.003 16.4836C158.151 16.6866 159.212 15.8929 160.071 16.2529Z" fill="#F78700"/>
<path d="M158.087 36.3818C158.013 36.3356 157.857 36.631 157.358 36.9171C157.072 37.0832 156.666 37.3139 156.205 37.2309C156.14 37.2216 155.678 37.1293 155.429 36.7417C155.309 36.5571 155.282 36.3725 155.282 34.6928C155.291 34.5729 155.3 34.1114 155.319 33.1885C155.337 32.1179 155.337 31.3426 155.355 30.6597C155.374 30.1152 155.374 29.9767 155.383 29.5429C155.42 28.1309 155.402 26.3589 155.402 26.3589C155.392 24.753 155.365 23.7839 155.319 22.5195C155.291 21.6612 155.263 21.2367 155.208 20.8767C155.143 20.4245 155.023 19.6123 154.617 18.6802C154.377 18.1357 153.888 17.1943 152.974 16.3175C151.922 15.3115 150.861 14.9147 149.91 14.5547C148.341 13.9641 147.04 13.8533 146.265 13.7887C145.517 13.7333 144.114 13.6779 142.407 14.001C141.484 14.1763 140.524 14.3701 139.417 14.97C138.826 15.2931 138.161 15.6622 137.552 16.4098C136.749 17.4066 136.546 18.4218 136.5 18.6894C136.426 19.1324 136.288 19.9907 136.676 20.9782C136.786 21.2736 137.155 22.1688 138.088 22.7779C139.232 23.5255 140.986 23.6547 142.158 22.7226C142.287 22.621 143.247 21.8366 143.256 20.6091C143.256 20.5445 143.256 19.2616 142.582 18.9755C141.973 18.7171 141.447 19.5477 140.524 19.317C140.46 19.2985 139.897 19.1509 139.583 18.6248C139.204 17.9972 139.454 17.3143 139.481 17.222C139.758 16.4744 140.524 16.1698 141.244 15.893C142.241 15.5053 143.127 15.5053 143.542 15.5238C144.096 15.5515 145.176 15.6069 146.191 16.3729C146.892 16.8989 147.225 17.5081 147.289 17.6373C147.603 18.2372 147.668 18.7725 147.751 19.8154C147.797 20.3784 147.806 20.8213 147.815 21.7073C147.824 22.4088 147.824 23.3409 147.824 24.4484C147.806 24.8545 147.834 24.4484 147.834 27.9555C147.834 30.0413 147.834 31.0842 147.824 31.6472C147.815 32.2286 147.806 32.5978 147.815 33.1977C147.834 34.0006 147.843 34.7298 147.963 35.6527C148.111 36.7879 148.194 37.4062 148.609 38.1353C148.784 38.4491 149.08 38.9659 149.67 39.4089C150.399 39.9535 151.156 40.0642 151.645 40.1381C152.393 40.2488 152.974 40.1657 153.353 40.1196C153.694 40.0735 154.728 39.8981 155.9 39.2336C156.38 38.9567 156.804 38.7168 157.229 38.2368C157.93 37.4431 158.226 36.4556 158.087 36.3818Z" fill="#F78700"/>
<path d="M208.645 17.4711C208.755 17.5911 209.577 16.5574 210.583 16.7328C210.629 16.742 211.183 16.8435 211.524 17.2681C211.755 17.5542 211.829 17.8587 211.847 17.9695C211.875 18.1079 211.875 18.1725 211.884 18.6801C211.893 19.1785 211.903 19.1324 211.903 19.3446C211.912 19.9814 211.884 20.5352 211.866 20.9321C211.856 21.0705 211.847 21.615 211.829 22.7133C211.81 23.9777 211.81 24.9006 211.792 25.7128C211.709 29.4321 211.755 31.2964 211.727 32.1086C211.7 33.0777 211.7 34.056 211.672 35.0343C211.663 35.4311 211.644 36.1879 211.7 37.1662C211.783 38.5321 211.94 38.8736 212.023 39.0213C212.447 39.8427 213.195 40.2211 213.508 40.378C214.321 40.7841 215.05 40.7748 215.696 40.7656C216.536 40.7564 217.292 40.7471 218.031 40.2211C218.169 40.1195 218.889 39.5843 219.101 38.7813C219.129 38.6706 219.175 38.4214 219.212 38.1168C219.231 37.9784 219.24 37.803 219.249 37.4339C219.258 36.9355 219.24 36.5663 219.24 36.5386C219.194 35.2742 219.184 33.8714 219.184 33.7422C219.184 33.3638 219.184 33.2715 219.184 32.7085C219.184 32.1086 219.175 31.804 219.175 31.4903C219.175 30.6781 219.184 30.1243 219.203 29.6167C219.231 28.4354 219.203 28.1493 219.212 26.2481C219.212 25.722 219.221 25.6851 219.231 24.513C219.24 22.9809 219.24 22.7594 219.24 22.621C219.231 21.4673 219.194 21.4766 219.184 20.4706C219.175 19.5384 219.212 19.3815 219.203 18.3848C219.184 17.0742 219.12 16.7881 219.009 16.4928C218.751 15.8375 218.335 15.413 218.142 15.2284C217.708 14.8316 217.283 14.6562 217.052 14.5639C216.49 14.3332 216.037 14.3055 215.373 14.2686C215.105 14.2501 214.468 14.2224 213.656 14.3239C213.472 14.3516 212.973 14.4162 212.355 14.5916C212.318 14.6008 211.543 14.8131 210.98 15.0807C209.448 15.7914 208.516 17.3419 208.645 17.4711Z" fill="#F78700"/>
<path d="M219.47 17.951C219.775 17.3512 220.144 16.9266 220.375 16.6682C221.085 15.8653 221.787 15.4315 221.962 15.3208C223.024 14.6747 223.983 14.5086 224.223 14.4717C224.629 14.407 225.663 14.2778 226.909 14.6378C228.644 15.1454 229.641 16.2529 229.872 16.5298C230.601 17.3881 230.942 18.2741 231.108 18.8832C231.265 19.4554 231.57 20.6737 231.09 22.095C230.951 22.4918 230.398 24.0331 228.773 24.8637C228.487 25.0114 227.001 25.7313 225.368 25.1498C224.888 24.9837 223.854 24.6145 223.494 23.6086C223.19 22.7595 223.411 21.6058 224.03 21.3013C224.602 21.0151 225.091 21.6612 225.848 21.3659C226.392 21.1536 226.734 20.5722 226.817 20.0461C226.992 18.9478 226.023 18.2279 225.959 18.1818C225.451 17.8218 224.916 17.8034 224.519 17.7942C223.817 17.7757 223.301 17.9787 222.858 18.1633C221.787 18.5971 221.067 19.2801 220.753 19.5846C220.329 19.9907 219.876 20.4614 219.876 20.4614C219.24 21.1167 219.166 21.2459 219.074 21.2182C218.732 21.1167 218.732 19.3908 219.47 17.951Z" fill="#F78700"/>
<path d="M168.12 19.8892C168.461 20.0368 169.07 17.9695 171.101 17.1389C171.516 16.9728 172.3 16.659 173.131 16.9359C174.017 17.2312 174.46 18.0157 174.931 18.8555C175.531 19.9169 175.724 20.8675 175.872 21.6427C176.001 22.3257 176.047 23.0456 176.121 24.4853C176.158 25.2237 176.204 26.0174 176.214 27.0787C176.223 28.2231 176.223 29.1738 176.094 30.4012C175.955 31.7487 175.844 32.8562 175.309 34.1944C174.746 35.6157 174.174 36.1326 173.888 36.3633C173.592 36.594 173.057 37.0093 172.282 37.0739C171.359 37.1478 170.667 36.7048 170.298 36.4556C169.569 35.9849 169.162 35.3758 168.969 35.0343C168.47 34.1483 168.535 33.4746 168.35 33.4746C168.12 33.4653 167.695 34.5451 167.824 35.6619C167.99 37.0832 168.969 38.0338 169.384 38.4214C170.307 39.2705 171.239 39.6304 171.728 39.815C172.051 39.935 173.574 40.498 175.623 40.2765C176.37 40.1934 177.755 40.0365 179.185 39.0951C180.413 38.283 181.05 37.3047 181.585 36.4833C182.609 34.8959 182.979 33.4376 183.265 32.3209C183.551 31.2042 183.652 30.3182 183.726 29.6721C183.902 28.1862 183.883 27.0603 183.874 26.2666C183.855 25.1037 183.837 23.8946 183.56 22.3072C183.366 21.2274 183.154 20.0553 182.499 18.6617C182.231 18.0987 181.88 17.3604 181.188 16.5298C180.256 15.4315 179.287 14.8501 178.992 14.6839C178.539 14.4255 177.607 13.9548 176.334 13.7518C174.728 13.4934 173.491 13.7979 173.14 13.881C172.891 13.9456 171.931 14.2132 170.861 14.9147C170.353 15.2469 169.596 15.7361 168.978 16.6128C168.009 18.0157 167.815 19.76 168.12 19.8892Z" fill="#F78700"/>
<path d="M110.336 3.2951C110.797 3.55351 111.056 3.95035 111.157 4.14417C111.157 4.14417 111.175 4.19031 111.203 4.22723C111.508 4.85481 111.462 5.57469 111.452 5.66698C111.397 6.54375 111.462 7.42053 111.434 8.2973C111.406 9.15562 111.443 8.92488 111.434 10.8538C111.425 11.9613 111.406 12.4781 111.397 13.5303C111.369 15.4407 111.379 16.8251 111.36 18.0526C111.332 19.8338 111.314 21.3381 111.305 22.5933C111.295 23.4609 111.277 25.3159 111.286 27.6971C111.286 31.5456 111.332 31.1672 111.295 32.1179C111.259 32.9946 111.259 33.7699 111.268 35.3296C111.268 35.3296 111.268 35.9018 111.36 36.7509C111.434 37.48 111.526 37.803 111.619 38.1076C111.988 39.2982 112.892 39.8612 113.326 40.1473C114.258 40.7656 115.089 40.7471 115.827 40.7379C116.796 40.7195 117.654 40.7102 118.494 39.9165C118.66 39.7596 119.482 38.9567 119.722 37.7384C119.759 37.5723 119.814 37.1939 119.851 36.7324C119.869 36.5202 119.879 36.2525 119.888 35.6988C119.897 34.9512 119.879 34.3882 119.879 34.3513C119.823 32.4501 119.823 30.3366 119.823 30.1336C119.823 29.5706 119.823 29.4229 119.823 28.5738C119.823 27.6602 119.814 27.2172 119.814 26.7372C119.814 25.5098 119.832 24.6791 119.842 23.9131C119.86 22.7964 119.851 22.8794 119.851 22.8148C119.869 20.8582 119.832 20.0368 119.851 18.4033C119.851 18.2372 119.851 17.8403 119.86 17.3973C119.86 17.0097 119.869 16.5851 119.869 16.2252C119.888 13.9456 119.879 13.6687 119.879 13.3734C119.869 12.6996 119.869 12.8288 119.86 12.2105C119.851 10.9553 119.879 10.8815 119.869 9.89396C119.86 9.0818 119.842 8.9895 119.832 7.98351C119.832 7.65126 119.832 7.5405 119.832 7.30977C119.832 7.30977 119.832 7.18058 119.832 6.97754C119.823 6.25766 119.805 5.07632 119.676 4.43951C119.639 4.26415 119.593 4.08879 119.593 4.08879C119.574 4.01496 119.528 3.84883 119.454 3.62733C119.343 3.30431 119.242 3.03666 119.076 2.75979C118.983 2.59366 118.891 2.47369 118.854 2.41831C118.457 1.87379 118.005 1.54153 117.885 1.45847C117.424 1.13545 116.999 0.978543 116.87 0.932397C116.325 0.738584 115.901 0.720135 115.209 0.683219C114.729 0.66476 114.221 0.701674 113.234 0.766278C112.403 0.821653 111.785 0.867813 111.517 0.8955C110.705 0.969334 110.289 1.00624 109.883 1.06162C109.044 1.1816 108.416 1.32926 107.77 1.48615C106.893 1.69843 106.339 1.82763 105.62 2.08605C105.306 2.1968 104.18 2.6029 102.823 3.40584C102.666 3.49813 102.417 3.64578 102.112 3.84883C101.42 4.31029 100.22 5.12247 99.1683 6.51608C98.8361 6.95908 98.2269 7.77125 97.8024 8.99873C97.5717 9.67246 97.2302 10.66 97.3594 11.9705C97.3963 12.3028 97.5532 13.5949 98.4761 14.9054C98.7345 15.2653 99.2145 15.9391 100.091 16.4836C101.106 17.1112 102.057 17.2219 102.694 17.2773C103.035 17.3142 104.106 17.3881 105.407 17.0097C106.063 16.8159 106.884 16.5759 107.696 15.8745C108.877 14.8593 109.219 13.5764 109.32 13.1334C109.403 12.7642 109.57 11.9613 109.311 10.9922C109.154 10.4016 108.877 9.38636 107.936 8.91567C107.059 8.4819 105.85 8.62033 105.343 9.25715C105.001 9.67246 105.232 9.96778 104.854 10.6877C104.752 10.8722 104.355 11.629 103.571 11.8505C102.694 12.109 101.752 11.5921 101.273 10.9461C100.913 10.4569 100.857 9.93088 100.82 9.51556C100.747 8.72185 100.95 8.11273 101.088 7.70665C101.429 6.70067 102.002 6.05463 102.205 5.83312C102.777 5.21477 103.395 4.86406 104.143 4.44875C104.438 4.28262 104.687 4.15339 104.798 4.10724C105.37 3.83037 105.85 3.66425 106.182 3.54427C106.976 3.2674 107.567 3.14742 107.899 3.08281C108.545 2.97206 108.887 2.97205 109.007 2.98128C109.44 3.03665 109.883 3.04591 110.336 3.2951Z" fill="#F78700"/>
<path d="M122.573 23.3686C123.431 23.8024 124.197 23.9408 124.575 23.9962C125.517 24.1346 126.237 24.0423 126.883 23.95C127.316 23.8946 128.055 23.7654 128.922 23.4701C130.15 23.0548 130.999 22.5195 131.23 22.3718C131.497 22.1965 132.716 21.3935 133.86 19.8799C134.192 19.4369 134.857 18.4863 135.392 17.1297C136.029 15.4961 136.112 14.1578 136.195 12.9673C136.26 11.989 136.324 10.9092 136.075 9.51556C135.927 8.68494 135.697 7.45745 134.903 6.0823C134.783 5.87926 134.183 4.87327 133.066 3.84883C131.931 2.81516 130.86 2.28909 130.085 1.91993C129.781 1.77226 128.645 1.25543 127.049 0.886262C126.061 0.655532 125.314 0.590933 124.529 0.5171C123.246 0.39712 122.287 0.406344 120.884 0.424802C120.588 0.424802 119.675 0.443275 117.866 0.526338C115.845 0.627859 113.38 0.74782 113.38 0.969321C113.371 1.21851 116.786 0.747817 117.801 2.43676C118.493 3.59041 117.709 5.1317 118.669 5.82389C118.881 5.97155 119.241 6.13768 119.462 5.99924C119.73 5.83312 119.555 5.35319 119.73 4.71637C119.896 4.10724 120.293 3.71964 120.644 3.37816C120.921 3.11051 121.594 2.45522 122.619 2.29833C123.819 2.11374 124.76 2.71365 125.286 3.05513C126.283 3.69194 126.79 4.51333 127.187 5.15015C127.75 6.06384 127.99 6.85755 128.166 7.45744C128.489 8.55572 128.553 9.38636 128.636 10.5031C128.747 11.9613 128.701 13.0873 128.664 13.9548C128.599 15.3946 128.452 16.4005 128.406 16.7328C128.23 17.9326 128.129 18.5786 127.796 19.4093C127.52 20.083 127.261 20.7383 126.624 21.3566C126.495 21.4858 125.794 22.1411 124.64 22.4457C122.923 22.9071 121.521 22.2611 121.428 22.5103C121.336 22.7502 122.407 23.2855 122.573 23.3686Z" fill="#F78700"/>
<path d="M148.11 19.963C147.834 19.9907 147.907 20.8398 147.363 21.8919C147.031 22.5287 146.643 22.9164 146.56 22.9902C146.061 23.4701 145.6 23.6547 144.649 24.0515C143.93 24.3561 143.219 24.6699 142.508 24.9652C141.558 25.3529 140.552 25.7774 139.444 26.3312C138.161 26.9772 137.524 27.3002 136.962 27.7802C136.463 28.2139 135.531 29.1368 134.95 30.6043C134.562 31.5826 134.497 32.404 134.451 32.9854C134.396 33.7053 134.331 34.6282 134.663 35.7634C135.042 37.0555 135.716 37.8953 135.946 38.163C136.906 39.289 137.986 39.7596 138.263 39.8796C139.786 40.5164 141.152 40.3226 141.918 40.2026C143.717 39.9258 144.936 39.0859 145.628 38.5968C145.628 38.5968 146.8 37.7661 147.797 36.4371C148.101 36.0218 148.276 35.6157 148.276 35.6157C148.276 35.6157 148.369 35.4035 148.424 35.1912C148.683 34.2867 148.046 32.4409 147.797 32.4963C147.649 32.5239 147.852 33.1792 147.529 34.296C147.427 34.6282 147.317 35.0158 147.04 35.4311C146.911 35.6157 146.265 36.594 144.991 36.8248C144.742 36.8709 143.699 37.0186 142.794 36.3633C142.047 35.8095 141.816 35.0158 141.659 34.4805C141.548 34.0929 141.53 33.7422 141.484 33.0315C141.428 32.164 141.392 31.4995 141.493 30.6227C141.567 30.0505 141.668 29.266 142.074 28.3247C142.287 27.8448 142.554 27.2356 143.136 26.6265C143.403 26.3496 144.216 25.5282 145.499 25.3252C145.951 25.2513 146.551 25.196 147.132 25.5097C147.907 25.9343 148.101 26.7557 148.858 26.8203C149.006 26.8295 149.163 26.848 149.236 26.7557C149.541 26.3958 147.963 25.3067 148.101 24.0792C148.23 22.9625 149.661 22.6118 149.486 21.7627C149.439 21.5597 149.366 21.615 148.6 20.5444C148.304 20.083 148.23 19.9446 148.11 19.963Z" fill="#F78700"/>
<path d="M193.739 26.3127C193.989 26.4512 194.33 26.1927 195.539 25.4821C195.539 25.4821 195.871 25.2883 197.45 24.4023C199.461 23.2763 199.812 23.2671 200.108 22.7133C200.338 22.2888 200.329 21.8181 200.311 20.8767C200.301 20.1753 200.283 19.4739 199.96 18.6433C199.683 17.9511 199.286 16.9728 198.317 16.6405C197.348 16.3083 196.407 16.8066 196.157 16.9451C195.078 17.5173 194.662 18.5418 194.358 19.2709C194.099 19.9077 194.016 20.5168 193.841 21.7443C193.804 22.0119 193.795 22.0858 193.638 24.3931C193.536 25.8513 193.518 26.1927 193.739 26.3127Z" fill="#00382F"/>
</svg>
