<svg width="55" height="49" viewBox="0 0 55 49" fill="none" xmlns="http://www.w3.org/2000/svg">
<rect width="54.8073" height="48.1927" rx="10" fill="#F78700"/>
<path d="M42.5231 12.2979C41.248 13.2228 39.8362 13.9302 38.3421 14.3929C37.5402 13.4447 36.4744 12.7726 35.2889 12.4676C34.1035 12.1626 32.8555 12.2393 31.7138 12.6874C30.5722 13.1355 29.5919 13.9333 28.9055 14.973C28.2192 16.0127 27.8599 17.244 27.8763 18.5005V19.8697C25.5363 19.9321 23.2176 19.3985 21.1268 18.3163C19.0359 17.2341 17.2378 15.637 15.8925 13.6672C15.8925 13.6672 10.5664 25.9901 22.5502 31.467C19.8079 33.3811 16.5412 34.3409 13.2295 34.2054C25.2132 41.0515 39.86 34.2054 39.86 18.4594C39.8588 18.078 39.8231 17.6976 39.7535 17.323C41.1125 15.9449 42.0715 14.2049 42.5231 12.2979Z" fill="white" stroke="white" stroke-width="2" stroke-linecap="round" stroke-linejoin="round"/>
</svg>
