<svg width="109" height="109" viewBox="0 0 109 109" fill="none" xmlns="http://www.w3.org/2000/svg">
<g filter="url(#filter0_d_629_25)">
<circle cx="54.5" cy="54.5" r="44.4991" transform="rotate(-15 54.5 54.5)" fill="#F78700"/>
<circle cx="54.5" cy="54.5" r="43.9991" transform="rotate(-15 54.5 54.5)" stroke="#00382F"/>
</g>
<path d="M36.409 53.7463C35.2139 53.9902 34.1076 54.0021 33.0901 53.7819C32.0769 53.5552 31.2268 53.1341 30.5398 52.5186C29.8571 51.8966 29.4103 51.1097 29.1994 50.158L32.6885 49.4458C32.7915 49.8415 32.9941 50.167 33.2962 50.4221C33.6026 50.6707 33.9755 50.8364 34.4147 50.919C34.8539 51.0016 35.3269 50.9912 35.8338 50.8877C36.3619 50.7799 36.8097 50.5913 37.177 50.3218C37.5444 50.0523 37.809 49.7287 37.9709 49.3511C38.1328 48.9735 38.1696 48.5686 38.0814 48.1365C37.9921 47.699 37.7904 47.3373 37.4764 47.0513C37.1666 46.7588 36.7654 46.5629 36.2727 46.4634C35.7854 46.3628 35.2323 46.3757 34.6134 46.502L33.0849 46.814L32.5654 44.2692L34.0939 43.9572C34.6167 43.8505 35.0597 43.6656 35.4228 43.4025C35.7912 43.1383 36.0548 42.8233 36.2136 42.4575C36.3712 42.0863 36.4059 41.6846 36.3177 41.2525C36.2338 40.8417 36.0616 40.5017 35.8011 40.2326C35.5447 39.957 35.2226 39.7672 34.8345 39.663C34.4518 39.5577 34.0284 39.5525 33.5642 39.6472C33.0947 39.743 32.6827 39.9161 32.3281 40.1663C31.9724 40.4112 31.7087 40.7123 31.5372 41.0697C31.3656 41.427 31.3143 41.8154 31.3832 42.2348L28.0621 42.9127C27.8854 41.9652 27.9849 41.0779 28.3607 40.2509C28.7365 39.424 29.3259 38.7174 30.1287 38.1311C30.9358 37.5384 31.8995 37.1278 33.0199 36.899C34.1509 36.6682 35.1825 36.6715 36.1146 36.9092C37.0468 37.1468 37.8189 37.5672 38.4311 38.1702C39.0475 38.7669 39.4412 39.4979 39.6123 40.3632C39.805 41.2798 39.6758 42.1036 39.2249 42.8348C38.7793 43.5648 38.1145 44.1062 37.2306 44.4589L37.2568 44.5869C38.4941 44.4955 39.4972 44.727 40.2661 45.2814C41.0393 45.8293 41.5273 46.6134 41.7299 47.6335C41.9259 48.566 41.8258 49.4506 41.4297 50.2872C41.039 51.1228 40.4113 51.8456 39.5466 52.4556C38.6819 53.0656 37.636 53.4958 36.409 53.7463ZM51.6596 50.7748C50.2821 51.0505 49.0286 50.9535 47.899 50.4838C46.7748 50.0131 45.8158 49.1946 45.022 48.0284C44.2336 46.8612 43.659 45.3807 43.2985 43.587C42.9336 41.7998 42.8868 40.2227 43.1579 38.8558C43.4344 37.4879 43.9992 36.375 44.8522 35.5174C45.7095 34.6532 46.8237 34.0812 48.1948 33.8013C49.5659 33.5215 50.8125 33.6116 51.9345 34.0716C53.0619 34.5306 54.0208 35.3352 54.8113 36.4853C55.6008 37.6302 56.1752 39.0968 56.5347 40.8851C56.9017 42.683 56.9486 44.2739 56.6754 45.6579C56.4075 47.0408 55.8487 48.1691 54.9989 49.0428C54.1492 49.9165 53.0361 50.4938 51.6596 50.7748ZM51.0732 47.9019C52.0121 47.7102 52.6653 47.0851 53.0328 46.0264C53.4002 44.9677 53.3884 43.4947 52.9976 41.6071C52.7438 40.3641 52.4045 39.3552 51.9796 38.5805C51.5601 37.8048 51.0757 37.2562 50.5267 36.9348C49.9829 36.6124 49.3989 36.5148 48.7747 36.6423C47.8411 36.8329 47.1895 37.4521 46.8199 38.5001C46.4503 39.5481 46.4528 41.0036 46.8276 42.8666C47.0846 44.1257 47.4245 45.1511 47.8474 45.9429C48.2744 46.7282 48.763 47.2842 49.3132 47.6109C49.8623 47.9323 50.449 48.0293 51.0732 47.9019ZM69.0186 43.6551L68.8422 42.7908C68.7083 42.1346 68.7239 41.5034 68.8892 40.8973C69.0587 40.2847 69.3764 39.7586 69.8424 39.3189C70.3126 38.8728 70.9345 38.5708 71.7081 38.4129C72.4924 38.2528 73.185 38.2837 73.786 38.5056C74.3924 38.7263 74.8882 39.0864 75.2736 39.5857C75.6632 40.0786 75.9255 40.6558 76.0605 41.3173L76.237 42.1816C76.3709 42.8378 76.3558 43.4717 76.1917 44.0831C76.0264 44.6893 75.7081 45.2127 75.2368 45.6535C74.7666 46.0996 74.1447 46.4016 73.3711 46.5595C72.5868 46.7196 71.8937 46.6861 71.2915 46.4589C70.6905 46.237 70.1952 45.8796 69.8056 45.3867C69.4149 44.8885 69.1526 44.3113 69.0186 43.6551ZM71.171 42.3155L71.3474 43.1797C71.4247 43.5585 71.5884 43.8975 71.8384 44.1965C72.0937 44.4945 72.4641 44.594 72.9496 44.4949C73.4351 44.3958 73.7321 44.1628 73.8407 43.7961C73.9545 43.4283 73.9717 43.0497 73.8922 42.6602L73.7158 41.796C73.6363 41.4065 73.4769 41.0612 73.2375 40.7599C72.9982 40.4586 72.6278 40.3592 72.1263 40.4616C71.6461 40.5596 71.347 40.7957 71.2289 41.1699C71.1108 41.5441 71.0915 41.926 71.171 42.3155ZM58.6934 35.993L58.5169 35.1287C58.3819 34.4672 58.3997 33.8328 58.5702 33.2255C58.7397 32.613 59.0575 32.0869 59.5235 31.6472C59.9948 31.2064 60.6119 30.9082 61.3748 30.7524C62.1644 30.5912 62.8597 30.6216 63.4607 30.8434C64.0618 31.0653 64.5576 31.4254 64.9483 31.9236C65.3379 32.4164 65.6002 32.9937 65.7353 33.6552L65.9117 34.5195C66.0467 35.181 66.029 35.8154 65.8584 36.4227C65.6931 37.0288 65.3748 37.5522 64.9035 37.993C64.4365 38.4274 63.8135 38.724 63.0345 38.883C62.2556 39.042 61.563 39.0112 60.9566 38.7904C60.3545 38.5632 59.8592 38.2058 59.4707 37.7183C59.0864 37.2243 58.8273 36.6492 58.6934 35.993ZM60.8617 34.6501L61.0381 35.5143C61.1176 35.9038 61.2818 36.2454 61.5307 36.5391C61.785 36.8318 62.1469 36.9302 62.6163 36.8344C63.1072 36.7342 63.4068 36.5007 63.5154 36.134C63.6293 35.7662 63.6464 35.3876 63.5669 34.9981L63.3905 34.1338C63.311 33.7444 63.1516 33.399 62.9123 33.0978C62.6729 32.7965 62.2998 32.6976 61.793 32.8011C61.3182 32.898 61.0249 33.1357 60.9132 33.5142C60.8016 33.8926 60.7844 34.2713 60.8617 34.6501ZM62.2916 48.2294L70.2136 29.54L72.3103 29.112L64.3883 47.8014L62.2916 48.2294ZM50.8053 79.4016C49.5622 79.6554 48.4333 79.6107 47.4185 79.2677C46.408 78.9182 45.5604 78.3188 44.8757 77.4693C44.19 76.6146 43.7186 75.5576 43.4615 74.2986C43.2023 73.0288 43.2212 71.869 43.5182 70.8192C43.8141 69.764 44.3589 68.8803 45.1527 68.1681C45.9508 67.4495 46.9714 66.9633 48.2144 66.7095C49.4575 66.4558 50.5843 66.5036 51.5948 66.8531C52.6096 67.1961 53.4599 67.795 54.1456 68.6498C54.8303 69.4992 55.3022 70.5588 55.5614 71.8286C55.8185 73.0876 55.799 74.2448 55.5031 75.2999C55.2062 76.3498 54.6587 77.234 53.8606 77.9527C53.0668 78.6649 52.0484 79.1479 50.8053 79.4016ZM50.2822 76.7575C50.8477 76.6421 51.2872 76.3856 51.6007 75.9882C51.913 75.5854 52.108 75.0844 52.1858 74.485C52.2688 73.8845 52.2374 73.2268 52.0914 72.5119C51.9455 71.797 51.7166 71.1796 51.4049 70.6597C51.0985 70.1388 50.7227 69.7542 50.2774 69.5061C49.8322 69.258 49.3269 69.1916 48.7613 69.3071C48.1905 69.4236 47.7436 69.6844 47.4205 70.0893C47.1028 70.4931 46.9025 70.9953 46.8194 71.5958C46.7417 72.1952 46.7758 72.8523 46.9218 73.5672C47.0677 74.2821 47.2939 74.9 47.6003 75.421C47.912 75.9409 48.2932 76.3244 48.7437 76.5714C49.1985 76.812 49.7114 76.874 50.2822 76.7575ZM63.1239 63.8327L63.6466 66.3935L56.0602 67.9422L55.5374 65.3814L63.1239 63.8327ZM59.7832 77.3188L57.0927 64.1386C56.9108 63.2476 56.9334 62.4733 57.1603 61.8157C57.3927 61.157 57.783 60.6188 58.3313 60.2012C58.8796 59.7836 59.5405 59.4959 60.3141 59.338C60.8369 59.2312 61.3226 59.1738 61.771 59.1656C62.2249 59.1563 62.565 59.1619 62.7915 59.1824L62.706 61.8674C62.5639 61.8519 62.3904 61.8456 62.1854 61.8486C61.9857 61.8505 61.7845 61.8721 61.5817 61.9135C61.0802 62.0158 60.7547 62.2045 60.6053 62.4796C60.4547 62.7493 60.4219 63.0922 60.5068 63.5083L63.1843 76.6246L59.7832 77.3188ZM71.8167 62.0582L72.3394 64.6191L64.753 66.1677L64.2302 63.6069L71.8167 62.0582ZM68.476 75.5444L65.7855 62.3641C65.6036 61.4731 65.6262 60.6988 65.8531 60.0412C66.0855 59.3825 66.4758 58.8443 67.0241 58.4267C67.5724 58.0091 68.2333 57.7214 69.0069 57.5635C69.5297 57.4568 70.0154 57.3993 70.4638 57.3911C70.9177 57.3818 71.2578 57.3874 71.4843 57.4079L71.3988 60.0929C71.2567 60.0774 71.0832 60.0712 70.8782 60.0741C70.6785 60.076 70.4773 60.0976 70.2745 60.139C69.773 60.2413 69.4475 60.4301 69.2981 60.7051C69.1475 60.9748 69.1147 61.3177 69.1996 61.7338L71.8771 74.8501L68.476 75.5444Z" fill="black"/>
<defs>
<filter id="filter0_d_629_25" x="5.98999" y="9.98999" width="97.02" height="97.02" filterUnits="userSpaceOnUse" color-interpolation-filters="sRGB">
<feFlood flood-opacity="0" result="BackgroundImageFix"/>
<feColorMatrix in="SourceAlpha" type="matrix" values="0 0 0 0 0 0 0 0 0 0 0 0 0 0 0 0 0 0 127 0" result="hardAlpha"/>
<feOffset dy="4"/>
<feGaussianBlur stdDeviation="2"/>
<feComposite in2="hardAlpha" operator="out"/>
<feColorMatrix type="matrix" values="0 0 0 0 0 0 0 0 0 0 0 0 0 0 0 0 0 0 0.15 0"/>
<feBlend mode="normal" in2="BackgroundImageFix" result="effect1_dropShadow_629_25"/>
<feBlend mode="normal" in="SourceGraphic" in2="effect1_dropShadow_629_25" result="shape"/>
</filter>
</defs>
</svg>
