<svg width="238" height="153" viewBox="0 0 238 153" fill="none" xmlns="http://www.w3.org/2000/svg">
<path d="M171.058 110.681C171.483 109.849 172.224 109.452 172.608 109.257C175.495 107.764 176.937 107.019 177.55 106.74C177.916 106.575 179.343 105.668 182.21 103.892C186.283 101.369 187.116 100.781 187.535 100.48C190.366 98.4497 191.793 97.4044 192.368 95.8815C193.344 93.3073 192.248 90.8232 192.078 90.4538C191.075 88.267 189.276 87.3028 187.793 86.5098C185.7 85.3894 183.88 85.1642 182.265 84.9659C178.294 84.4793 175.266 85.2723 174.654 85.4405C171.878 86.2005 169.988 87.408 168.634 88.2881C165.671 90.2165 163.865 92.28 163.423 92.7967C162.702 93.6377 160.601 96.2209 159.138 100.213C157.913 103.559 157.714 106.326 157.605 108.044C157.444 110.558 157.62 112.642 157.807 114.066C158.039 115.814 158.271 117.548 159.138 119.671C160.12 122.077 161.374 123.654 162.089 124.537C164.51 127.526 167.081 129.043 167.819 129.46C170.038 130.713 171.96 131.212 172.74 131.392C174.991 131.911 176.749 131.857 178.095 131.806C179.449 131.755 181.884 131.548 184.78 130.59C185.952 130.202 187.702 129.611 189.73 128.307C191.058 127.451 192.676 126.43 193.956 124.48C194.774 123.237 195.322 121.822 195.123 121.684C194.982 121.585 194.534 122.182 193.499 122.993C192.761 123.573 192.169 123.912 191.538 124.273C190.595 124.814 189.041 125.703 186.981 126.111C186.181 126.27 183.883 126.694 181.163 125.814C178.83 125.06 177.371 123.726 176.474 122.906C175.123 121.672 174.311 120.476 173.725 119.614C172.728 118.148 172.192 116.971 171.726 115.934C170.99 114.3 170.771 113.399 170.741 112.465C170.709 111.453 170.92 110.942 171.052 110.681H171.058Z" fill="#F78700"/>
<path d="M110.652 88.0439C111.527 88.41 111.928 89.297 112.132 89.7435C112.35 90.2227 112.392 91.3776 112.467 93.6696C112.485 94.2381 112.503 94.7798 112.515 95.3454C112.539 96.658 112.545 96.5271 112.551 97.0837C112.569 98.7446 112.521 100.2 112.491 101.23C112.482 101.593 112.464 103.019 112.431 105.87C112.392 109.174 112.404 111.579 112.371 113.699C112.323 116.785 112.299 119.384 112.284 121.56C112.275 123.06 112.248 126.272 112.251 130.403C112.257 137.071 112.329 136.419 112.266 138.059C112.206 139.577 112.215 140.928 112.227 143.625C112.227 143.625 112.233 144.619 112.371 146.09C112.491 147.352 112.635 147.914 112.784 148.441C113.368 150.501 114.785 151.483 115.464 151.977C116.935 153.04 118.243 153.016 119.408 152.992C120.926 152.962 122.291 152.936 123.606 151.572C123.864 151.307 125.154 149.914 125.537 147.801C125.588 147.521 125.678 146.852 125.735 146.06C125.762 145.691 125.786 145.232 125.795 144.277C125.807 142.982 125.783 142.003 125.78 141.949C125.693 138.66 125.687 134.996 125.687 134.642C125.687 133.662 125.693 133.415 125.687 131.945C125.687 130.367 125.678 129.591 125.675 128.769C125.669 126.638 125.699 125.206 125.72 123.876C125.75 121.947 125.738 122.09 125.741 121.977C125.768 118.583 125.717 117.172 125.741 114.339C125.741 114.056 125.747 113.365 125.753 112.594C125.759 111.922 125.762 111.19 125.765 110.57C125.789 106.627 125.786 106.144 125.783 105.632C125.774 104.46 125.762 104.683 125.756 103.62C125.741 101.453 125.792 101.316 125.774 99.6078C125.759 98.2058 125.726 98.0451 125.714 96.2979C125.708 95.5121 125.714 95.4317 125.708 94.5626C125.696 92.854 125.69 91.9908 125.633 91.4223C125.567 90.7556 125.472 89.8685 125.118 88.7613C124.939 88.2017 124.777 87.7344 124.528 87.2581C124.379 86.9694 124.241 86.7581 124.178 86.6598C123.558 85.7133 122.848 85.1448 122.66 84.9989C121.932 84.4334 121.27 84.1625 121.064 84.0821C120.213 83.7488 119.54 83.7101 118.441 83.6535C117.983 83.6297 116.827 83.591 115.327 83.7904C114.749 83.8678 113.865 83.9899 112.745 84.3381C111.772 84.6417 111.066 84.9751 110.557 85.2162C109.88 85.5407 109.419 85.7609 108.841 86.1746C108.544 86.386 107.874 86.895 107.302 87.7552C107.059 88.1243 106.939 88.3088 107.005 88.419C107.248 88.8119 109.128 87.4099 110.652 88.0469V88.0439Z" fill="#F78700"/>
<path d="M106.934 123.861C106.798 123.777 106.518 124.298 105.624 124.807C105.113 125.1 104.39 125.51 103.562 125.358C103.439 125.334 102.617 125.172 102.175 124.49C101.967 124.166 101.913 123.837 101.913 120.852C101.931 120.631 101.94 119.816 101.973 118.185C102.012 116.287 102 114.903 102.033 113.685C102.06 112.721 102.063 112.463 102.081 111.706C102.142 109.2 102.117 106.042 102.117 106.042C102.102 103.183 102.048 101.464 101.976 99.2219C101.928 97.698 101.871 96.9376 101.777 96.3059C101.66 95.4976 101.44 94.0515 100.718 92.402C100.296 91.441 99.4173 89.7674 97.7737 88.2046C95.8953 86.4173 93.9959 85.7048 92.3042 85.0701C89.4956 84.0163 87.1717 83.8157 85.7931 83.711C84.4505 83.6062 81.949 83.5163 78.8966 84.0941C77.241 84.4085 75.5342 84.7438 73.5505 85.8156C72.4939 86.3844 71.3109 87.0401 70.2152 88.3813C68.7733 90.1476 68.4241 91.9619 68.3428 92.4319C68.2074 93.2163 67.9665 94.7461 68.6559 96.5065C68.8576 97.0244 69.5078 98.6261 71.1754 99.7069C73.2254 101.036 76.35 101.267 78.4421 99.6111C78.6769 99.4254 80.3867 98.0303 80.4108 95.8568C80.4108 95.7401 80.4108 93.4648 79.2037 92.9528C78.108 92.4888 77.1748 93.9677 75.5222 93.5516C75.4018 93.5217 74.4054 93.2552 73.8395 92.3211C73.1652 91.2104 73.6077 89.986 73.6649 89.8303C74.1676 88.498 75.5312 87.9621 76.8166 87.4652C78.6046 86.7766 80.176 86.7766 80.9195 86.8155C81.9099 86.8664 83.8455 86.9712 85.6516 88.3274C86.8978 89.2645 87.4938 90.3512 87.6082 90.5698C88.1742 91.6385 88.2885 92.5846 88.4391 94.4437C88.5203 95.4437 88.5323 96.234 88.5594 97.8148C88.5805 99.0662 88.5805 100.719 88.5805 102.692C88.5504 103.416 88.5956 102.689 88.5896 108.928C88.5896 112.631 88.5865 114.481 88.5685 115.484C88.5504 116.523 88.5324 117.17 88.5504 118.242C88.5745 119.676 88.5986 120.969 88.8183 122.6C89.0892 124.612 89.2398 125.714 89.9682 127.016C90.2783 127.567 90.8051 128.486 91.8647 129.274C93.1711 130.244 94.5167 130.438 95.3987 130.564C96.7352 130.756 97.7707 130.621 98.451 130.525C99.0531 130.441 100.916 130.136 103.008 128.947C103.869 128.459 104.628 128.028 105.387 127.172C106.639 125.759 107.166 124.005 106.934 123.861Z" fill="#F78700"/>
<path d="M197.534 89.5169C197.733 89.7281 199.178 87.8548 200.968 88.17C201.057 88.1853 202.028 88.3782 202.632 89.1404C203.04 89.6516 203.165 90.2148 203.207 90.4107C203.261 90.6586 203.255 90.7841 203.276 91.7055C203.299 92.6177 203.302 92.5289 203.311 92.9146C203.329 94.0717 203.282 95.0849 203.252 95.8011C203.243 96.0552 203.225 97.047 203.195 99.0305C203.157 101.329 203.168 103.004 203.136 104.482C202.987 111.241 203.061 114.623 203.02 116.108C202.969 117.877 202.966 119.646 202.924 121.416C202.906 122.144 202.871 123.503 202.981 125.294C203.136 127.786 203.407 128.392 203.544 128.664C204.294 130.161 205.619 130.841 206.176 131.125C207.621 131.866 208.904 131.848 210.048 131.832C211.54 131.811 212.88 131.793 214.173 130.844C214.423 130.66 215.691 129.69 216.07 128.22C216.12 128.024 216.207 127.559 216.263 127.008C216.29 126.751 216.314 126.433 216.323 125.765C216.335 124.862 216.311 124.183 216.308 124.146C216.224 121.857 216.216 119.307 216.216 119.059C216.216 118.376 216.219 118.205 216.216 117.182C216.216 116.083 216.207 115.545 216.204 114.972C216.198 113.488 216.227 112.493 216.245 111.565C216.29 109.417 216.251 108.899 216.26 105.449C216.26 104.494 216.269 104.433 216.287 102.303C216.308 99.5111 216.305 99.1193 216.305 98.8652C216.287 96.7654 216.219 96.7898 216.207 94.9563C216.195 93.2544 216.257 92.982 216.233 91.1576C216.201 88.7792 216.085 88.2466 215.885 87.7201C215.432 86.5232 214.7 85.7549 214.345 85.4213C213.574 84.6958 212.821 84.3774 212.416 84.2091C211.415 83.7928 210.614 83.7408 209.452 83.6642C208.985 83.6336 207.853 83.5816 206.412 83.7714C206.078 83.8142 205.208 83.9428 204.11 84.2519C204.047 84.2703 202.68 84.6621 201.679 85.1458C198.957 86.4651 197.305 89.2689 197.537 89.5138L197.534 89.5169Z" fill="#F78700"/>
<path d="M216.251 90.9087C216.799 89.8839 217.462 89.1507 217.869 88.709C219.133 87.332 220.389 86.5815 220.702 86.3996C222.593 85.2969 224.316 85.0053 224.747 84.939C225.469 84.8264 227.321 84.6128 229.55 85.2305C232.657 86.0936 234.434 88.0018 234.85 88.4665C236.16 89.9358 236.768 91.4629 237.057 92.4935C237.331 93.4721 237.888 95.5678 237.024 98.0042C236.78 98.6912 235.792 101.33 232.877 102.753C232.359 103.004 229.706 104.231 226.782 103.241C225.927 102.949 224.081 102.326 223.428 100.599C222.876 99.1444 223.28 97.1728 224.379 96.6388C225.406 96.1423 226.279 97.2623 227.628 96.7485C228.598 96.379 229.212 95.3917 229.366 94.4939C229.685 92.6176 227.939 91.3792 227.83 91.3041C226.924 90.6835 225.957 90.6604 225.262 90.6431C224.006 90.6142 223.081 90.9635 222.298 91.2724C220.383 92.0229 219.097 93.1863 218.531 93.7059C217.772 94.4044 216.965 95.207 216.965 95.207C215.833 96.3328 215.697 96.5579 215.523 96.506C214.938 96.3328 214.941 93.3768 216.257 90.9115L216.251 90.9087Z" fill="#F78700"/>
<path d="M125.167 94.592C125.761 94.8475 126.837 91.2083 130.402 89.7497C131.123 89.4526 132.503 88.9119 133.966 89.3991C135.515 89.916 136.292 91.2975 137.128 92.7858C138.18 94.6574 138.517 96.3388 138.777 97.6994C139.008 98.9056 139.079 100.174 139.218 102.708C139.289 104.006 139.366 105.414 139.375 107.277C139.383 109.294 139.389 110.979 139.171 113.144C138.931 115.524 138.733 117.473 137.799 119.835C136.809 122.333 135.813 123.251 135.302 123.658C134.79 124.065 133.851 124.793 132.476 124.912C130.86 125.051 129.648 124.258 128.986 123.827C127.712 122.995 126.997 121.92 126.66 121.323C125.782 119.757 125.9 118.578 125.581 118.566C125.173 118.551 124.437 120.45 124.665 122.419C124.951 124.926 126.669 126.602 127.408 127.288C129.021 128.788 130.659 129.421 131.522 129.754C132.083 129.968 134.764 130.957 138.352 130.574C139.664 130.434 142.097 130.146 144.597 128.491C146.757 127.062 147.863 125.339 148.8 123.887C150.597 121.094 151.25 118.516 151.746 116.552C152.246 114.585 152.432 113.02 152.565 111.888C152.869 109.274 152.849 107.283 152.828 105.875C152.799 103.819 152.769 101.686 152.272 98.8937C151.933 96.9835 151.554 94.9307 150.404 92.4679C149.94 91.4757 149.317 90.1656 148.099 88.7129C146.471 86.77 144.771 85.754 144.245 85.4569C143.453 85.0054 141.822 84.1765 139.575 83.8141C136.765 83.3596 134.581 83.8884 133.972 84.0488C133.534 84.1647 131.85 84.634 129.973 85.8669C129.077 86.4551 127.747 87.3226 126.675 88.8585C124.969 91.2974 124.638 94.3722 125.161 94.598L125.167 94.592Z" fill="#F78700"/>
<path d="M21.8521 68.4931C22.6318 68.9309 23.0546 69.5937 23.2345 69.9265C23.2375 69.9325 23.2735 69.9985 23.3095 70.0735C23.8193 71.1201 23.7353 72.3406 23.7263 72.4906C23.6274 73.963 23.7413 75.4415 23.6964 76.9169C23.6514 78.3653 23.7114 77.9665 23.6904 81.2203C23.6784 83.0765 23.6484 83.9492 23.6274 85.7215C23.5854 88.9273 23.6004 91.2604 23.5644 93.3177C23.5134 96.3135 23.4864 98.8326 23.4714 100.944C23.4625 102.398 23.4325 105.514 23.4385 109.523C23.4445 115.992 23.5224 115.359 23.4534 116.952C23.3905 118.424 23.3965 119.735 23.4114 122.353C23.4114 122.353 23.4174 123.318 23.5644 124.743C23.6933 125.969 23.8463 126.515 24.0053 127.022C24.629 129.019 26.1374 129.973 26.8661 130.453C28.4345 131.484 29.832 131.46 31.0736 131.439C32.6959 131.409 34.1504 131.385 35.5538 130.06C35.8267 129.802 37.2062 128.449 37.6171 126.401C37.671 126.128 37.767 125.48 37.827 124.713C37.854 124.356 37.881 123.912 37.89 122.982C37.902 121.726 37.875 120.778 37.875 120.724C37.782 117.533 37.776 113.98 37.776 113.635C37.776 112.684 37.782 112.444 37.776 111.017C37.776 109.488 37.764 108.732 37.764 107.937C37.758 105.868 37.791 104.482 37.812 103.19C37.842 101.319 37.833 101.457 37.833 101.349C37.86 98.0589 37.809 96.6884 37.83 93.9384C37.83 93.6625 37.839 92.9968 37.842 92.2441C37.848 91.5903 37.851 90.8826 37.857 90.2798C37.881 86.4533 37.881 85.9854 37.875 85.4876C37.866 84.3511 37.854 84.567 37.845 83.5354C37.83 81.4332 37.881 81.3012 37.863 79.6428C37.848 78.2814 37.812 78.1284 37.8 76.4311C37.797 75.8793 37.8 75.6844 37.8 75.3005C37.8 75.3005 37.8 75.0786 37.8 74.7487C37.791 73.5432 37.752 71.5519 37.5421 70.4843C37.4821 70.1845 37.4071 69.8996 37.4071 69.8996C37.3742 69.7736 37.2992 69.4947 37.1702 69.1229C36.9813 68.5801 36.8074 68.1242 36.5405 67.6624C36.3785 67.3835 36.2346 67.1766 36.1656 67.0836C35.5059 66.166 34.7471 65.6142 34.5462 65.4732C33.7695 64.9244 33.0618 64.6606 32.8429 64.5826C31.9342 64.2587 31.2145 64.2197 30.0449 64.1657C29.2442 64.1297 28.3926 64.1897 26.7192 64.2977C25.3217 64.3877 24.2931 64.4746 23.8403 64.5166C22.4698 64.6366 21.7861 64.6965 21.0963 64.7925C19.6839 64.9904 18.6373 65.2393 17.5427 65.5032C16.0733 65.8571 15.1436 66.082 13.9291 66.5108C13.3983 66.6968 11.515 67.3805 9.22986 68.721C8.96896 68.8739 8.55212 69.1199 8.03332 69.4647C6.86976 70.2384 4.85453 71.6029 3.0852 73.945C2.52142 74.6917 1.5078 76.0532 0.794067 78.1134C0.404216 79.241 -0.174559 80.9024 0.0503559 83.1125C0.107334 83.6643 0.371231 85.8415 1.92164 88.0397C2.35048 88.6484 3.16016 89.776 4.64159 90.6937C6.35094 91.7553 7.95232 91.9292 9.01392 92.0311C9.5867 92.0881 11.383 92.2171 13.5782 91.5753C14.6758 91.2544 16.0523 90.8496 17.4227 89.668C19.399 87.9587 19.9868 85.8085 20.1517 85.0678C20.2896 84.447 20.5655 83.1005 20.1277 81.4722C19.8638 80.4825 19.405 78.7792 17.8156 77.9875C16.3492 77.2558 14.3069 77.4957 13.4522 78.5573C12.8855 79.262 13.2693 79.7568 12.6306 80.9594C12.4626 81.2742 11.7969 82.5367 10.4804 82.9206C9.01392 83.3464 7.42153 82.4858 6.62383 81.4032C6.01507 80.5755 5.93109 79.6968 5.86511 79.0011C5.73916 77.6666 6.07806 76.641 6.30898 75.9662C6.88776 74.2719 7.84139 73.1863 8.18026 72.8264C9.1459 71.7918 10.1865 71.2041 11.44 70.4963C11.9378 70.2144 12.3636 70.0075 12.5406 69.9205C13.5062 69.4557 14.3069 69.1708 14.8677 68.9759C16.2052 68.5081 17.1888 68.3072 17.7556 68.2052C18.8382 68.0133 19.408 68.0223 19.6119 68.0283C20.3526 68.0493 21.0933 68.0702 21.8461 68.4931H21.8521Z" fill="#F78700"/>
<path d="M42.4155 102.206C43.8639 102.929 45.1444 103.169 45.7802 103.265C47.3606 103.496 48.5661 103.337 49.6547 103.193C50.3894 103.097 51.616 102.887 53.0764 102.392C55.1456 101.691 56.5701 100.794 56.951 100.548C57.4008 100.257 59.449 98.9017 61.3743 96.3617C61.9351 95.6209 63.0566 94.0286 63.9413 91.7404C65.0029 88.9995 65.1528 86.7443 65.2848 84.7501C65.3927 83.1007 65.5007 81.2954 65.0869 78.9443C64.841 77.5498 64.4601 75.4866 63.1136 73.1805C62.9097 72.8326 61.911 71.1532 60.0338 69.4289C58.1355 67.6866 56.3332 66.8139 55.0197 66.1901C54.5129 65.9502 52.6086 65.0686 49.9246 64.4538C48.2692 64.0729 47.0097 63.953 45.6902 63.833C43.531 63.6351 41.9147 63.6531 39.5606 63.6861C39.0688 63.6921 37.5333 63.7131 34.4865 63.863C31.0888 64.0309 26.9533 64.2409 26.9443 64.6037C26.9353 65.0296 32.6632 64.2319 34.3665 67.0628C35.5301 68.9941 34.2046 71.5851 35.827 72.7486C36.1808 73.0005 36.7926 73.2704 37.1585 73.0455C37.6143 72.7666 37.3084 71.9569 37.6023 70.8833C37.8842 69.8517 38.541 69.216 39.1437 68.6312C39.6086 68.1814 40.7361 67.0868 42.4604 66.8259C44.4727 66.52 46.0531 67.5276 46.9348 68.0944C48.6111 69.165 49.4598 70.5445 50.1226 71.6181C51.0732 73.1535 51.475 74.488 51.7689 75.4986C52.3087 77.3429 52.4197 78.7464 52.5666 80.6087C52.7586 83.0647 52.6746 84.948 52.6056 86.4144C52.4917 88.8255 52.2517 90.5259 52.1708 91.0747C51.8739 93.0929 51.706 94.1815 51.1452 95.576C50.6863 96.7095 50.2485 97.8131 49.1719 98.8537C48.95 99.0666 47.7834 100.164 45.8402 100.689C42.9553 101.466 40.5922 100.371 40.4512 100.8C40.3283 101.175 42.1276 102.074 42.4125 102.215L42.4155 102.206Z" fill="#F78700"/>
<path d="M89.1712 94.2196C88.671 94.2738 88.8096 95.7903 87.8333 97.6746C87.2427 98.8112 86.5435 99.5047 86.4049 99.6403C85.5189 100.503 84.6842 100.834 82.9816 101.546C81.6979 102.082 80.4293 102.652 79.1425 103.183C77.446 103.885 75.644 104.63 73.6672 105.625C71.3739 106.78 70.2288 107.355 69.2344 108.215C68.3454 108.983 66.67 110.645 65.6334 113.277C64.9433 115.031 64.8197 116.496 64.7414 117.534C64.6419 118.824 64.5334 120.473 65.1271 122.505C65.8051 124.818 67.0135 126.316 67.4173 126.792C69.1289 128.803 71.0636 129.653 71.5547 129.858C74.2849 130.998 76.7197 130.654 78.0908 130.443C81.3182 129.946 83.4849 128.444 84.7264 127.57C84.7264 127.57 86.8238 126.084 88.6077 123.696C89.1592 122.96 89.4726 122.219 89.4726 122.219C89.4726 122.219 89.6353 121.836 89.7408 121.462C90.1958 119.843 89.0628 116.542 88.6228 116.632C88.3636 116.686 88.7252 117.847 88.1376 119.858C87.9628 120.455 87.7579 121.151 87.2697 121.887C87.0437 122.225 85.8806 123.973 83.6115 124.377C83.1655 124.456 81.3002 124.73 79.6819 123.542C78.3349 122.556 77.9312 121.136 77.6569 120.178C77.458 119.484 77.4189 118.851 77.3405 117.585C77.2441 116.035 77.1688 114.844 77.3616 113.271C77.4882 112.246 77.672 110.835 78.4043 109.161C78.7809 108.299 79.257 107.214 80.3087 106.125C80.7879 105.631 82.2464 104.16 84.5336 103.804C85.3502 103.677 86.42 103.569 87.4506 104.132C88.8307 104.886 89.1863 106.363 90.5454 106.484C90.8166 106.508 91.0908 106.532 91.2294 106.367C91.7718 105.718 88.9573 103.78 89.2044 101.573C89.4304 99.568 92.0009 98.9469 91.6754 97.4334C91.594 97.0626 91.4584 97.1741 90.0993 95.2597C89.5178 94.4427 89.3822 94.1955 89.1773 94.2166L89.1712 94.2196Z" fill="#F78700"/>
<path d="M170.773 105.908C171.207 106.156 171.799 105.696 173.901 104.419C173.901 104.419 174.475 104.071 177.231 102.474C180.728 100.447 181.343 100.432 181.862 99.4401C182.261 98.6778 182.246 97.8368 182.22 96.1489C182.199 94.8935 182.179 93.623 181.604 92.1437C181.117 90.8944 180.434 89.1429 178.737 88.5379C177.058 87.942 175.416 88.8374 174.974 89.0824C173.095 90.1109 172.368 91.9441 171.846 93.26C171.395 94.3974 171.248 95.4954 170.949 97.6946C170.885 98.1817 170.876 98.3057 170.601 102.444C170.428 105.07 170.387 105.684 170.773 105.905V105.908Z" fill="#00382F"/>
<path d="M156.545 30.3324C156.869 30.6503 158.08 29.2169 159.622 29.3728C160.629 29.4748 161.301 30.2425 161.376 30.3324C161.805 30.8392 161.937 31.397 161.979 31.589C162.033 31.8349 162.03 31.9578 162.051 32.8695C162.075 33.7721 162.081 33.6852 162.087 34.066C162.105 35.2116 162.054 36.2132 162.027 36.9239C162.018 37.1728 162 38.1565 161.967 40.1207C161.928 42.3968 161.94 44.0552 161.907 45.5157C161.751 52.2061 161.829 55.5528 161.784 57.0253C161.73 58.7766 161.73 60.528 161.682 62.2823C161.664 63.002 161.625 64.3485 161.742 66.1208C161.904 68.5859 162.192 69.1857 162.336 69.4556C163.127 70.937 164.522 71.6087 165.107 71.8936C166.627 72.6284 167.979 72.6104 169.182 72.5954C170.753 72.5744 172.163 72.5564 173.524 71.6147C173.788 71.4318 175.126 70.4722 175.522 69.0177C175.576 68.8258 175.666 68.364 175.726 67.8182C175.753 67.5633 175.777 67.2484 175.786 66.5886C175.798 65.695 175.771 65.0233 175.771 64.9843C175.681 62.7171 175.675 60.1951 175.675 59.9492C175.675 59.2744 175.681 59.1035 175.675 58.0899C175.675 57.0043 175.666 56.4675 175.663 55.9007C175.657 54.4313 175.687 53.4476 175.708 52.527C175.756 50.3978 175.714 49.888 175.723 46.4723C175.723 45.5247 175.735 45.4677 175.75 43.3565C175.774 40.5915 175.77 40.2047 175.767 39.9528C175.747 37.8746 175.678 37.8986 175.666 36.0842C175.654 34.3989 175.72 34.132 175.693 32.3237C175.657 29.9696 175.537 29.4418 175.327 28.923C174.85 27.7384 174.079 26.9767 173.704 26.6468C172.892 25.9301 172.1 25.6122 171.674 25.4473C170.618 25.0364 169.776 24.9825 168.555 24.9075C168.063 24.8775 166.873 24.8235 165.352 25.0155C165.002 25.0604 164.087 25.1834 162.929 25.4923C161.592 25.8491 160.635 26.26 160.371 26.3769C159.115 26.9317 158.398 27.4355 157.993 27.7534C157.834 27.8794 157.48 28.1672 157.13 28.6261C156.734 29.1479 156.626 29.5167 156.587 29.6727C156.497 30.0445 156.449 30.2335 156.545 30.3264V30.3324Z" fill="#F78700" stroke="#F78700" stroke-width="1.5" stroke-miterlimit="10"/>
<path d="M175.373 37.1878C175.759 37.3467 176.53 35.3225 179.058 33.0523C180.579 31.6849 181.295 31.5229 181.577 31.4749C183.715 31.0881 185.476 32.8694 185.635 33.0344C186.39 33.8201 186.675 34.6357 187.092 35.8323C187.473 36.9209 187.599 37.7845 187.833 39.4699C188.076 41.2182 188.175 42.5797 188.292 44.2261C188.349 45.0208 188.43 46.1604 188.493 47.6628C188.688 52.308 188.517 55.8677 188.472 56.7164C188.439 57.3371 188.337 59.2504 188.073 61.7514C187.692 65.3741 187.473 67.3263 186.633 69.8244C185.86 72.1305 185.062 73.387 184.447 74.1937C184.105 74.6435 183.545 75.3783 182.633 76.158C182.345 76.4039 181.736 76.9527 180.84 77.5584C178.68 79.0129 177.265 79.2438 177.319 79.5317C177.388 79.9065 179.859 79.9275 182.294 79.4477C184.531 79.0069 186.159 78.2542 187.263 77.7384C188.55 77.1356 190.151 76.3739 191.92 74.9014C193.393 73.6779 194.286 72.5383 195.069 71.5457C196.623 69.5665 197.579 67.7881 198.068 66.8105C199.289 64.3575 199.792 62.4082 200.407 60.0361C201.274 56.6834 201.571 54.0624 201.667 53.1417C201.919 50.6856 201.898 48.8533 201.877 46.8771C201.859 45.2457 201.832 43.2845 201.547 40.7324C201.232 37.9135 200.995 35.7963 199.987 33.1783C199.357 31.5439 198.875 30.2874 197.708 28.9229C195.372 26.188 192.367 25.4322 191.623 25.2673C191.084 25.1473 188.721 24.6585 185.944 25.4592C184.531 25.8671 183.58 26.4249 182.6 27.0036C180.102 28.4821 178.602 30.1704 177.793 31.0911C177.103 31.8768 176.641 32.4226 176.185 33.2983C175.301 34.9926 175.004 37.0408 175.376 37.1938L175.373 37.1878Z" fill="#F78700" stroke="#F78700" stroke-width="1.5" stroke-miterlimit="10"/>
<path d="M59.9671 35.9616C60.0361 36.1865 60.252 36.8913 60.5309 37.8809C61.0077 39.5812 61.2356 40.6158 62.2462 44.1155C63.3858 48.062 63.3978 47.8611 64.3635 51.2348C65.707 55.928 66.9215 60.7232 66.9215 60.7232C67.2814 62.1477 67.7402 64.004 68.4779 66.6579C69.3566 69.8247 69.7344 70.9013 70.781 71.858C72.2775 73.2344 74.1278 73.4354 74.8355 73.5103C75.2853 73.5583 78.0473 73.8192 80.4313 72.1129C82.2876 70.7814 83.0854 68.4753 84.6058 63.914C85.3315 61.7368 85.8203 59.9225 86.1232 58.729C87.4937 54.4286 88.8642 50.1312 90.2316 45.8309C91.2662 42.718 92.001 40.112 92.5078 38.1808C92.8406 36.9123 93.0776 35.9136 93.0146 34.5761C92.9036 32.336 91.959 29.562 90.9274 29.5171C89.6678 29.4631 88.4683 33.4875 87.6406 36.9782C86.618 41.2876 85.5534 44.1845 84.9836 46.2087C84.2519 48.8177 83.0823 52.5873 81.25 57.1246C80.4973 55.3402 79.8886 53.7838 79.4207 52.5303C78.9409 51.2528 78.2992 49.5285 77.7504 47.7171C77.6754 47.4742 77.4895 46.8415 77.3096 46.2357C77.1506 45.7049 76.9347 44.9702 76.6168 43.8666C74.8595 37.7669 74.9165 37.3981 73.6959 33.2656C72.8712 30.4767 73.2101 31.8772 70.9969 24.8718C69.4075 19.8427 68.5589 18.0584 68.298 17.4376C66.7266 13.6951 65.9409 11.8238 64.5224 10.3243C62.0933 7.75732 59.2234 6.83368 57.8469 6.40784C54.1164 5.25628 51.0035 5.71211 48.9733 6.00899C47.6808 6.19792 45.5696 6.5248 43.0595 7.68836C39.4819 9.34673 37.3587 11.6558 36.705 12.4056C35.7513 13.4971 33.6281 15.9862 32.7495 19.8787C32.4166 21.3542 31.8828 23.8552 32.7944 26.8091C33.1093 27.8287 33.895 30.3208 36.3061 32.1081C39.4189 34.4142 43.0026 33.8744 44.37 33.6705C45.5696 33.4905 48.0886 33.1127 50.1459 31.0585C50.7936 30.4107 51.8102 29.1692 52.296 27.3489C52.509 26.5482 53.1777 24.0321 51.7472 21.9539C51.5343 21.645 50.8326 20.6554 49.5131 20.1846C48.3885 19.7828 46.5892 19.6778 45.7195 20.6494C45.0118 21.4381 45.6056 22.1758 44.8349 23.3064C44.3341 24.0411 43.4194 24.7039 42.3068 24.7819C40.6005 24.9018 39.5089 23.5703 39.3979 23.4324C38.6752 22.5207 38.6572 21.5221 38.6392 20.3975C38.6332 19.9777 38.6302 18.0164 39.7788 15.7613C40.2556 14.8256 40.9783 13.4432 42.5617 12.3246C42.9516 12.0487 44.376 11.0981 46.4753 10.8821C47.4649 10.7802 48.8653 10.6542 50.2598 11.368C52.2151 12.3666 53.0968 14.3368 54.1374 17.2037C57.1452 25.4986 59.1844 33.3646 59.9731 35.9676L59.9671 35.9616Z" fill="#F78700" stroke="#F78700" stroke-width="1.5" stroke-miterlimit="10"/>
<path d="M85.2688 15.7227C84.8009 16.8803 85.0109 17.8729 86.2254 21.6935C87.1881 24.7193 88.0067 27.0764 88.4445 28.3479C89.986 32.8222 90.4538 34.2557 90.6487 34.8674C90.9666 35.8661 91.5094 37.5664 92.1062 39.6686C92.9069 42.4936 93.2787 44.1819 93.8575 46.563C94.5113 49.262 94.3343 48.3353 96.4276 56.3423C97.3182 59.743 98.4788 63.0687 99.4084 66.4604C99.8972 68.2418 100.311 69.7322 101.646 71.1357C103.223 72.791 105.271 73.2799 106.429 73.4478C107.652 73.5288 108.633 73.3788 109.287 73.2289C110.06 73.0519 110.735 72.893 111.413 72.3832C112.154 71.8254 112.507 71.1387 112.678 70.8028C114.658 66.8773 115.143 64.922 115.143 64.922C115.788 62.328 116.661 59.797 117.384 57.224C117.86 55.5236 119.633 50.0147 123.15 39.0659L123.171 38.9969C124.596 34.5466 126.614 28.048 128.989 19.7112C130.06 16.6044 130.72 13.9414 131.139 11.9352C131.64 9.53008 131.775 8.17759 131.328 6.62418C131.136 5.95544 130.687 4.46201 129.322 3.25347C127.811 1.91598 125.148 0.899365 122.668 2.00894C122.473 2.09591 119.93 3.28345 119.39 6.0514C119.327 6.37228 118.985 8.13261 119.951 9.65903C120.811 11.0235 121.837 10.8076 122.608 11.9981C123.273 13.0298 123.105 14.1153 122.734 16.5504C122.437 18.5027 122.158 20.347 121.723 23.2529C120.943 26.3507 120.164 29.4485 119.384 32.5463C118.436 36.172 117.486 39.7976 116.538 43.4202C115.458 47.5436 114.478 50.6474 113.755 52.7766C113.443 53.6943 112.852 55.4006 112.175 55.3677C111.869 55.3527 111.596 54.9898 110.93 53.4004C110.321 51.949 109.907 50.7284 109.65 49.9037C103.889 31.3558 101.592 23.4508 101.058 21.0277C100.815 19.9301 100.611 19.3364 100.197 18.1488C98.9256 14.4842 97.927 13.6025 97.5311 13.2846C96.6644 12.5979 95.7858 12.322 95.258 12.1601C93.8215 11.7222 92.634 11.8242 91.7073 11.9112C90.6427 12.0131 89.4972 12.1181 88.2316 12.7898C87.7008 13.0717 85.9735 13.9864 85.2778 15.7137L85.2688 15.7227Z" fill="#F78700" stroke="#F78700" stroke-width="1.5" stroke-miterlimit="10"/>
<path d="M142.007 17.5514C141.917 18.2771 141.896 18.8829 141.893 19.3207C141.89 20.2504 141.893 20.8142 142.133 21.5069C142.274 21.9118 142.436 22.3586 142.862 22.7634C143.048 22.9404 143.579 23.4412 144.331 23.4172C145.189 23.3902 145.726 22.7005 145.9 22.4756C146.257 22.0197 146.364 21.5579 146.478 21.0811C146.535 20.8382 146.568 20.6163 146.64 19.4857C146.673 18.9549 146.7 18.5141 146.715 18.1932C146.991 18.4751 147.399 18.8799 147.915 19.3417C148.905 20.2324 149.246 20.4033 149.378 20.4633C149.741 20.6342 150.428 20.9581 151.226 20.7572C151.415 20.7092 151.861 20.5893 152.212 20.1814C152.647 19.6776 152.635 19.0658 152.632 18.8049C152.623 18.3011 152.458 17.9323 152.305 17.5874C152.143 17.2245 151.978 16.9906 151.663 16.5438C151.364 16.118 151.247 16.004 150.884 15.5272C150.695 15.2753 150.44 14.9274 150.155 14.4986C150.545 14.5736 150.977 14.6275 151.448 14.6485C151.822 14.6635 152.356 14.6845 153.028 14.5676C153.601 14.4686 153.91 14.4146 154.272 14.1957C154.47 14.0757 155.169 13.6529 155.289 12.8642C155.376 12.3004 155.124 11.8536 155.001 11.6347C154.698 11.0979 154.263 10.828 154.057 10.705C153.748 10.5191 153.346 10.3542 152.014 10.2312C151.466 10.1802 150.734 10.1352 149.867 10.1442C150.155 9.91032 150.515 9.59845 150.911 9.21459C151.319 8.81874 151.544 8.59983 151.801 8.24896C151.996 7.98506 152.287 7.58321 152.488 6.99244C152.659 6.48563 152.821 6.0118 152.656 5.45102C152.608 5.29208 152.428 4.76428 151.903 4.43441C151.484 4.17051 151.067 4.17651 150.737 4.18251C149.933 4.1945 149.342 4.52137 148.992 4.7223C148.398 5.06117 148.032 5.44802 147.624 5.87686C147.249 6.27271 146.97 6.63857 146.781 6.90547C146.79 6.25172 146.787 5.70293 146.781 5.28608C146.769 4.4494 146.745 4.1885 146.682 3.87962C146.628 3.61272 146.541 3.21387 146.293 2.74905C146.164 2.51214 145.993 2.19425 145.651 1.89737C145.435 1.71144 144.988 1.32758 144.346 1.33658C143.708 1.34558 143.273 1.73843 143.129 1.87038C142.676 2.28122 142.535 2.77304 142.376 3.32783C142.328 3.49576 142.241 3.82564 142.148 4.92022C142.112 5.35206 142.07 5.93384 142.049 6.62958C141.881 6.45564 141.632 6.19774 141.323 5.89485C140.988 5.56198 140.82 5.39704 140.667 5.2591C140.43 5.04918 139.926 4.61134 139.203 4.28447C138.63 4.02656 138.178 3.81964 137.593 3.9156C137.446 3.93959 136.816 4.04456 136.42 4.58435C136.066 5.06717 136.108 5.60696 136.135 5.98782C136.18 6.57259 136.396 6.99243 136.588 7.37029C136.807 7.79612 137.038 8.09602 137.353 8.50086C137.596 8.81274 137.833 9.08264 138.019 9.29256C138.235 9.53846 138.421 9.73939 138.558 9.88333C138.241 9.87134 137.776 9.86235 137.209 9.87134C136.516 9.88334 136.159 9.89233 135.761 9.9703C135.308 10.0573 134.822 10.1532 134.318 10.5101C134.075 10.681 133.613 11.0109 133.415 11.6287C133.373 11.7576 133.247 12.1625 133.376 12.6513C133.526 13.2271 133.928 13.5479 134.195 13.7639C134.675 14.1477 135.149 14.2827 135.464 14.3666C135.976 14.5046 136.432 14.5076 137.323 14.5076C137.767 14.5076 138.136 14.4926 138.391 14.4776C138.307 14.5766 138.19 14.7205 138.052 14.8914C137.851 15.1403 137.497 15.5752 137.191 15.98C136.699 16.6308 136.453 16.9546 136.33 17.2155C136.183 17.5334 135.949 18.0492 136.003 18.721C136.027 18.9999 136.069 19.5217 136.468 19.9655C136.903 20.4453 137.482 20.5233 137.725 20.5563C138.424 20.6492 138.966 20.4063 139.32 20.2414C139.935 19.9565 140.298 19.5846 140.853 19.0119C141.167 18.682 141.59 18.2022 142.019 17.5544L142.007 17.5514Z" fill="#FFE9D0"/>
<path d="M133.364 30.5902C133.679 30.9081 134.866 29.4747 136.375 29.6306C137.361 29.7326 138.018 30.5003 138.09 30.5902C138.51 31.0971 138.639 31.6548 138.681 31.8468C138.735 32.0927 138.729 32.2156 138.753 33.1273C138.777 34.0299 138.783 33.943 138.789 34.3238C138.807 35.4694 138.756 36.471 138.729 37.1817C138.72 37.4306 138.702 38.4143 138.669 40.3785C138.63 42.6547 138.642 44.313 138.609 45.7735C138.456 52.4639 138.534 55.8107 138.489 57.2831C138.435 59.0344 138.435 60.7858 138.39 62.5401C138.372 63.2598 138.333 64.6063 138.447 66.3786C138.606 68.8437 138.885 69.4435 139.026 69.7134C139.799 71.1948 141.164 71.8666 141.74 72.1514C143.227 72.8862 144.549 72.8682 145.728 72.8532C147.263 72.8322 148.646 72.8142 149.974 71.8726C150.232 71.6896 151.54 70.73 151.93 69.2755C151.981 69.0836 152.071 68.6218 152.131 68.076C152.158 67.8211 152.182 67.5062 152.191 66.8465C152.203 65.9528 152.176 65.2811 152.176 65.2421C152.089 62.9749 152.083 60.4529 152.083 60.207C152.083 59.5322 152.089 59.3613 152.083 58.3477C152.083 57.2621 152.074 56.7253 152.071 56.1585C152.065 54.6891 152.095 53.7055 152.116 52.7848C152.161 50.6556 152.122 50.1458 152.131 46.7301C152.131 45.7825 152.143 45.7255 152.158 43.6143C152.179 40.8493 152.179 40.4625 152.176 40.2106C152.155 38.1324 152.086 38.1564 152.074 36.3421C152.062 34.6567 152.128 34.3898 152.101 32.5815C152.068 30.2274 151.948 29.6996 151.741 29.1808C151.273 27.9962 150.52 27.2345 150.154 26.9046C149.36 26.1879 148.583 25.87 148.166 25.7051C147.135 25.2943 146.31 25.2403 145.116 25.1653C144.633 25.1353 143.47 25.0813 141.982 25.2733C141.641 25.3182 140.744 25.4412 139.61 25.7501C138.3 26.1069 137.367 26.5178 137.106 26.6347C135.877 27.1895 135.175 27.6933 134.779 28.0112C134.623 28.1372 134.275 28.4251 133.933 28.8839C133.544 29.4057 133.439 29.7745 133.403 29.9305C133.313 30.3023 133.268 30.4913 133.364 30.5842V30.5902Z" fill="#F78700" stroke="#F78700" stroke-width="1.5" stroke-miterlimit="10"/>
</svg>
