<svg width="30" height="26" viewBox="0 0 30 26" fill="none" xmlns="http://www.w3.org/2000/svg">
<path d="M26.8409 3.12177C26.1568 2.44911 25.3445 1.9155 24.4504 1.55144C23.5563 1.18738 22.598 1 21.6302 1C20.6625 1 19.7042 1.18738 18.8101 1.55144C17.916 1.9155 17.1037 2.44911 16.4195 3.12177L14.9996 4.51714L13.5798 3.12177C12.1978 1.76368 10.3234 1.0007 8.36905 1.0007C6.41466 1.0007 4.54031 1.76368 3.15835 3.12177C1.77638 4.47987 1 6.32185 1 8.24249C1 10.1631 1.77638 12.0051 3.15835 13.3632L4.57823 14.7586L14.9996 25L25.4211 14.7586L26.8409 13.3632C27.5254 12.6909 28.0684 11.8926 28.4389 11.0139C28.8093 10.1353 29 9.19356 29 8.24249C29 7.29142 28.8093 6.34967 28.4389 5.47104C28.0684 4.59241 27.5254 3.79412 26.8409 3.12177V3.12177Z" stroke="white" stroke-width="2" stroke-linecap="round" stroke-linejoin="round"/>
</svg>
